<svg width="197" height="33" viewBox="0 0 197 33" fill="none" xmlns="http://www.w3.org/2000/svg">
<path d="M2.00114 14.9069L0.501136 14.9058L0.498865 17.9058L1.99886 17.9069L2.00114 14.9069ZM195.424 18.0532C196.253 18.0532 196.924 17.3816 196.924 16.5532C196.924 15.7247 196.253 15.0532 195.424 15.0532V18.0532ZM182.371 2V0.5H179.371V2H182.371ZM194.56 17.7238C195.287 18.1204 196.198 17.8524 196.595 17.1252C196.991 16.3979 196.723 15.4867 195.996 15.09L194.56 17.7238ZM179.371 30.9601V32.4601H182.371V30.9601H179.371ZM1.99886 17.9069L195.277 18.0532L195.279 15.0532L2.00114 14.9069L1.99886 17.9069ZM195.278 18.0532H195.424V15.0532H195.278V18.0532ZM179.371 2C179.371 4.15835 180.536 6.21505 181.959 7.96141C183.412 9.7445 185.313 11.4208 187.157 12.8462C189.011 14.2785 190.857 15.4947 192.235 16.3509C192.926 16.7799 193.503 17.1207 193.908 17.3552C194.111 17.4725 194.272 17.5633 194.383 17.6255C194.438 17.6566 194.481 17.6805 194.511 17.697C194.526 17.7052 194.537 17.7116 194.546 17.716C194.55 17.7183 194.553 17.72 194.555 17.7213C194.556 17.722 194.557 17.7225 194.558 17.7229C194.558 17.7231 194.559 17.7233 194.559 17.7234C194.559 17.7236 194.56 17.7238 195.278 16.4069C195.996 15.09 195.996 15.0901 195.996 15.0902C195.996 15.0902 195.996 15.0902 195.996 15.0902C195.996 15.0901 195.996 15.0899 195.995 15.0896C195.994 15.089 195.992 15.0879 195.989 15.0863C195.984 15.0832 195.975 15.0782 195.962 15.0714C195.938 15.0577 195.9 15.0367 195.85 15.0086C195.749 14.9525 195.6 14.8681 195.409 14.7577C195.027 14.5369 194.478 14.2126 193.818 13.8026C192.495 12.9808 190.74 11.8232 188.992 10.4724C187.235 9.11468 185.533 7.59857 184.285 6.0664C183.007 4.49751 182.371 3.11611 182.371 2H179.371ZM195.278 16.5532C194.716 15.1624 194.715 15.1626 194.715 15.1628C194.715 15.1629 194.714 15.1631 194.714 15.1632C194.713 15.1636 194.712 15.1641 194.71 15.1646C194.708 15.1657 194.704 15.1672 194.7 15.169C194.691 15.1726 194.679 15.1776 194.663 15.184C194.632 15.1969 194.587 15.2155 194.531 15.2396C194.417 15.2878 194.253 15.3584 194.047 15.4505C193.635 15.6346 193.051 15.9054 192.352 16.2571C190.959 16.9585 189.09 17.991 187.212 19.3093C185.342 20.6223 183.41 22.255 181.934 24.1715C180.456 26.09 179.371 28.378 179.371 30.9601H182.371C182.371 29.2493 183.087 27.59 184.31 26.0024C185.535 24.4126 187.205 22.9803 188.936 21.7647C190.66 20.5545 192.393 19.595 193.701 18.9367C194.353 18.6085 194.895 18.3575 195.27 18.1897C195.458 18.1058 195.604 18.0429 195.701 18.0017C195.75 17.9811 195.787 17.9659 195.81 17.9562C195.822 17.9514 195.83 17.9479 195.835 17.9459C195.837 17.9449 195.839 17.9442 195.84 17.9439C195.84 17.9437 195.841 17.9436 195.84 17.9436C195.84 17.9436 195.84 17.9437 195.84 17.9437C195.84 17.9438 195.84 17.9439 195.278 16.5532Z" fill="#FFFAF3"/>
</svg>
