<svg viewBox="0 0 65 65" fill="none" xmlns="http://www.w3.org/2000/svg">
<g id="Group">
<g id="Group_2">
<g id="Group_3">
<g id="Vector">
<path d="M34.0718 0H30.9287V65H34.0718V0Z" fill="#FFFAF3"/>
<path d="M34.0718 0H30.9287V65H34.0718V0Z" fill="url(#paint0_linear_123_2830)"/>
</g>
</g>
<g id="Group_4">
<g id="Vector_2">
<path d="M65 30.9297H0V34.0728H65V30.9297Z" fill="#FFFAF3"/>
<path d="M65 30.9297H0V34.0728H65V30.9297Z" fill="url(#paint1_linear_123_2830)"/>
</g>
</g>
<g id="Group_5">
<g id="Vector_3">
<path d="M10.6249 8.4064L8.40234 10.6289L54.3638 56.5904L56.5863 54.3679L10.6249 8.4064Z" fill="#FFFAF3"/>
<path d="M10.6249 8.4064L8.40234 10.6289L54.3638 56.5904L56.5863 54.3679L10.6249 8.4064Z" fill="url(#paint2_linear_123_2830)"/>
</g>
</g>
<g id="Group_6">
<g id="Vector_4">
<path d="M54.3638 8.40566L8.40234 54.3672L10.6249 56.5897L56.5864 10.6282L54.3638 8.40566Z" fill="#FFFAF3"/>
<path d="M54.3638 8.40566L8.40234 54.3672L10.6249 56.5897L56.5864 10.6282L54.3638 8.40566Z" fill="url(#paint3_linear_123_2830)"/>
</g>
</g>
<g id="Group_7">
<g id="Vector_5">
<path d="M3.00426 18.7923L1.81836 21.7031L62.0148 46.2276L63.2007 43.3168L3.00426 18.7923Z" fill="#FFFAF3"/>
<path d="M3.00426 18.7923L1.81836 21.7031L62.0148 46.2276L63.2007 43.3168L3.00426 18.7923Z" fill="url(#paint4_linear_123_2830)"/>
</g>
</g>
<g id="Group_8">
<g id="Vector_6">
<path d="M43.3175 1.82301L18.793 62.0195L21.7038 63.2054L46.2283 3.00891L43.3175 1.82301Z" fill="#FFFAF3"/>
<path d="M43.3175 1.82301L18.793 62.0195L21.7038 63.2054L46.2283 3.00891L43.3175 1.82301Z" fill="url(#paint5_linear_123_2830)"/>
</g>
</g>
<g id="Group_9">
<g id="Vector_7">
<path d="M62.0866 18.9028L1.78613 43.1738L2.95978 46.0897L63.2603 21.8187L62.0866 18.9028Z" fill="#FFFAF3"/>
<path d="M62.0866 18.9028L1.78613 43.1738L2.95978 46.0897L63.2603 21.8187L62.0866 18.9028Z" fill="url(#paint6_linear_123_2830)"/>
</g>
</g>
<g id="Group_10">
<g id="Vector_8">
<path d="M21.8046 1.78761L18.8887 2.96094L43.1532 63.2614L46.069 62.0881L21.8046 1.78761Z" fill="#FFFAF3"/>
<path d="M21.8046 1.78761L18.8887 2.96094L43.1532 63.2614L46.069 62.0881L21.8046 1.78761Z" fill="url(#paint7_linear_123_2830)"/>
</g>
</g>
</g>
</g>
<defs>
<linearGradient id="paint0_linear_123_2830" x1="31.031" y1="8.92667" x2="34.3058" y2="8.96089" gradientUnits="userSpaceOnUse">
<stop stop-color="#FFA360"/>
<stop offset="0.57" stop-color="#F64B4D"/>
<stop offset="1" stop-color="#F25D6D"/>
</linearGradient>
<linearGradient id="paint1_linear_123_2830" x1="2.11628" y1="31.3613" x2="5.34547" y2="45.7935" gradientUnits="userSpaceOnUse">
<stop stop-color="#FFA360"/>
<stop offset="0.57" stop-color="#F64B4D"/>
<stop offset="1" stop-color="#F25D6D"/>
</linearGradient>
<linearGradient id="paint2_linear_123_2830" x1="14.7867" y1="16.8686" x2="17.1266" y2="14.5772" gradientUnits="userSpaceOnUse">
<stop stop-color="#FFA360"/>
<stop offset="0.57" stop-color="#F64B4D"/>
<stop offset="1" stop-color="#F25D6D"/>
</linearGradient>
<linearGradient id="paint3_linear_123_2830" x1="10.204" y1="53.176" x2="22.6923" y2="61.0976" gradientUnits="userSpaceOnUse">
<stop stop-color="#FFA360"/>
<stop offset="0.57" stop-color="#F64B4D"/>
<stop offset="1" stop-color="#F25D6D"/>
</linearGradient>
<linearGradient id="paint4_linear_123_2830" x1="10.124" y1="24.9764" x2="11.3912" y2="21.9565" gradientUnits="userSpaceOnUse">
<stop stop-color="#FFA360"/>
<stop offset="0.57" stop-color="#F64B4D"/>
<stop offset="1" stop-color="#F25D6D"/>
</linearGradient>
<linearGradient id="paint5_linear_123_2830" x1="19.9912" y1="60.2225" x2="34.5752" y2="62.6772" gradientUnits="userSpaceOnUse">
<stop stop-color="#FFA360"/>
<stop offset="0.57" stop-color="#F64B4D"/>
<stop offset="1" stop-color="#F25D6D"/>
</linearGradient>
<linearGradient id="paint6_linear_123_2830" x1="3.91059" y1="42.7841" x2="12.2953" y2="54.967" gradientUnits="userSpaceOnUse">
<stop stop-color="#FFA360"/>
<stop offset="0.57" stop-color="#F64B4D"/>
<stop offset="1" stop-color="#F25D6D"/>
</linearGradient>
<linearGradient id="paint7_linear_123_2830" x1="22.3159" y1="11.204" x2="25.3667" y2="10.0133" gradientUnits="userSpaceOnUse">
<stop stop-color="#FFA360"/>
<stop offset="0.57" stop-color="#F64B4D"/>
<stop offset="1" stop-color="#F25D6D"/>
</linearGradient>
</defs>
</svg>
