<svg width="60" height="25" viewBox="0 0 60 25" fill="none" xmlns="http://www.w3.org/2000/svg">
<path d="M32.4833 3.38826L28.2999 4.28957V0.884619L32.4833 0V3.38826Z" fill="#635BFF"/>
<path d="M15.483 1.93596L11.4163 2.80379L11.3997 16.1717C11.3997 18.6416 13.2497 20.4608 15.7163 20.4608C17.083 20.4608 18.083 20.2104 18.633 19.91V16.5221C18.0997 16.7391 15.4663 17.5068 15.4663 15.0368V9.11223H18.633V5.55747H15.4663L15.483 1.93596Z" fill="#635BFF"/>
<path fill-rule="evenodd" clip-rule="evenodd" d="M60 12.9171C60 8.64475 57.9333 5.27357 53.9833 5.27357C50.0167 5.27357 47.6166 8.64475 47.6166 12.8838C47.6166 17.9071 50.45 20.4439 54.5167 20.4439C56.5 20.4439 58 19.9933 59.1333 19.3591V16.0213C58 16.5887 56.7 16.9392 55.05 16.9392C53.4333 16.9392 52 16.3718 51.8167 14.4025H59.9667C59.9667 14.3105 59.9727 14.1015 59.9796 13.8608L59.9796 13.8592C59.989 13.5324 60 13.1475 60 12.9171ZM51.7665 11.3319C51.7665 9.4458 52.9165 8.66133 53.9665 8.66133C54.9832 8.66133 56.0665 9.4458 56.0665 11.3319H51.7665Z" fill="#635BFF"/>
<path d="M5.63336 8.89538C4.75003 8.89538 4.21669 9.14571 4.21669 9.79658C4.21669 10.5072 5.13457 10.8198 6.2733 11.2077C8.1297 11.8399 10.5731 12.6721 10.5834 15.7546C10.5834 18.7419 8.20004 20.4609 4.73336 20.4609C3.30002 20.4609 1.73334 20.1772 0.183334 19.5096V15.5376C1.58334 16.3053 3.35002 16.8727 4.73336 16.8727C5.6667 16.8727 6.33337 16.6224 6.33337 15.8547C6.33337 15.0675 5.33837 14.7077 4.13713 14.2733C2.30773 13.6118 0 12.7773 0 9.99685C0 7.04289 2.25001 5.27386 5.63336 5.27386C7.01671 5.27386 8.38338 5.49082 9.76672 6.04155V9.96347C8.50005 9.27922 6.90004 8.89538 5.63336 8.89538Z" fill="#635BFF"/>
<path d="M23.8167 6.79237L23.55 5.55738H19.95V20.1603H24.1167V10.2637C25.1001 8.97863 26.7667 9.21227 27.2834 9.39585V5.55738C26.7501 5.35711 24.8001 4.98995 23.8167 6.79237Z" fill="#635BFF"/>
<path d="M28.2996 5.55759H32.483V20.1605H28.2996V5.55759Z" fill="#635BFF"/>
<path fill-rule="evenodd" clip-rule="evenodd" d="M37.9163 6.57531C38.4996 6.04127 39.5496 5.27357 41.183 5.27357C44.0996 5.27357 46.8497 7.91044 46.8663 12.7503C46.8663 18.0407 44.1496 20.4439 41.1663 20.4439C39.6996 20.4439 38.8163 19.8264 38.2163 19.3925L38.1996 24.1155L34.0329 25V5.5406H37.6996L37.9163 6.57531ZM38.2164 15.9887C38.6164 16.4226 39.1997 16.7732 40.1831 16.7732C41.7164 16.7732 42.7497 15.1041 42.7497 12.8675C42.7497 10.681 41.6997 8.97851 40.1831 8.97851C39.2331 8.97851 38.6331 9.31232 38.1997 9.79636L38.2164 15.9887Z" fill="#635BFF"/>
</svg>
