<svg width="86" height="21" viewBox="0 0 86 21" fill="none" xmlns="http://www.w3.org/2000/svg">
<path d="M5.03896 20.2871L5.40168 17.9755L4.5938 17.9567H0.736066L3.41702 0.898739C3.4252 0.847238 3.45235 0.799223 3.49188 0.76513C3.5314 0.731036 3.58211 0.712247 3.63481 0.712247H10.1396C12.2991 0.712247 13.7893 1.16317 14.5674 2.05318C14.9321 2.47072 15.1645 2.90702 15.2769 3.38717C15.3947 3.891 15.3969 4.49292 15.2817 5.22707L15.2733 5.28066V5.75105L15.6382 5.95844C15.9454 6.12195 16.1894 6.30914 16.3766 6.52348C16.6888 6.88046 16.8906 7.33417 16.9759 7.87207C17.0639 8.4253 17.0348 9.08359 16.8906 9.82887C16.7242 10.6862 16.4551 11.4329 16.0917 12.0438C15.7574 12.6068 15.3316 13.0736 14.8261 13.4356C14.3434 13.7793 13.7699 14.0403 13.1215 14.2074C12.4931 14.3715 11.7769 14.4544 10.9911 14.4544H10.4849C10.123 14.4544 9.77125 14.5852 9.49537 14.8198C9.21869 15.0591 9.03543 15.386 8.97934 15.7438L8.94121 15.9519L8.30042 20.0261L8.27127 20.1757C8.26369 20.2232 8.25051 20.2469 8.23115 20.2629C8.21378 20.2773 8.18883 20.2871 8.16447 20.2871H5.03896Z" fill="#253B80"/>
<path d="M15.9823 5.33589C15.963 5.46045 15.9408 5.58779 15.9159 5.71861C15.0579 10.1381 12.1232 11.6649 8.37486 11.6649H6.46645C6.00811 11.6649 5.62184 11.9989 5.55038 12.4526L4.29654 20.4335C4.25002 20.7314 4.479 21 4.77843 21H8.16345C8.5643 21 8.90466 20.7077 8.96774 20.3111L9.00108 20.1385L9.63848 16.0801L9.6794 15.8576C9.74168 15.4595 10.0828 15.1673 10.4837 15.1673H10.9899C14.2694 15.1673 16.8367 13.8312 17.5871 9.96484C17.9005 8.34971 17.7382 7.00112 16.9088 6.05263C16.6579 5.76663 16.3464 5.52934 15.9823 5.33589Z" fill="#179BD7"/>
<path d="M15.0832 4.97572C14.9522 4.93744 14.8169 4.90264 14.6782 4.87134C14.5388 4.84073 14.3959 4.81358 14.249 4.78993C13.7343 4.70642 13.1706 4.66675 12.5665 4.66675H7.46813C7.34257 4.66675 7.2234 4.69528 7.1166 4.74678C6.88144 4.8602 6.70677 5.08359 6.66445 5.35706L5.57969 12.2504L5.54855 12.4515C5.62002 11.9978 6.00629 11.6637 6.46463 11.6637H8.37303C12.1214 11.6637 15.0562 10.1363 15.914 5.71752C15.9396 5.58669 15.9611 5.45935 15.9805 5.3348C15.7635 5.21928 15.5284 5.12046 15.2752 5.03625C15.2129 5.01538 15.1485 4.99521 15.0832 4.97572Z" fill="#222D65"/>
<path d="M6.66701 5.35752C6.70933 5.08403 6.8842 4.86067 7.11915 4.74793C7.22675 4.69643 7.34533 4.6679 7.47069 4.6679H12.5693C13.1733 4.6679 13.7371 4.70757 14.2515 4.79108C14.3986 4.81473 14.5416 4.84188 14.6809 4.87248C14.8196 4.90381 14.9548 4.93861 15.0859 4.97687C15.151 4.99636 15.2155 5.01653 15.2786 5.03672C15.5317 5.12091 15.7669 5.22043 15.9839 5.33525C16.2392 3.70203 15.9819 2.59003 15.1019 1.5831C14.1317 0.474582 12.3806 0 10.1401 0H3.63512C3.17738 0 2.78711 0.334002 2.71625 0.788413L0.00695203 18.0217C-0.0465472 18.3626 0.215559 18.6703 0.558114 18.6703H4.57415L6.66701 5.35752Z" fill="#253B80"/>
<path fill-rule="evenodd" clip-rule="evenodd" d="M32.1114 4.50474H27.3484C27.0225 4.50474 26.7453 4.74245 26.6944 5.06521L24.768 17.3212C24.7297 17.5631 24.9164 17.7811 25.1608 17.7811H27.4348C27.7607 17.7811 28.0379 17.5434 28.0887 17.22L28.6083 13.9144C28.6584 13.5906 28.9363 13.3533 29.2616 13.3533H30.7694C33.9069 13.3533 35.7176 11.8297 36.1907 8.81063C36.4038 7.48982 36.1998 6.452 35.5832 5.72497C34.9064 4.92711 33.7055 4.50474 32.1114 4.50474ZM32.6609 8.98107C32.4005 10.6961 31.0946 10.6961 29.832 10.6961H29.1132L29.6175 7.49306C29.6474 7.29966 29.8145 7.15703 30.0096 7.15703H30.339C31.1991 7.15703 32.0105 7.15703 32.4299 7.64894C32.6796 7.9426 32.7563 8.37856 32.6609 8.98107ZM46.3492 8.92609H44.0683C43.874 8.92609 43.7061 9.06871 43.6761 9.26244L43.5752 9.90247L43.4157 9.67058C42.9219 8.95131 41.821 8.71102 40.7219 8.71102C38.2012 8.71102 36.0486 10.6266 35.6293 13.3138C35.4114 14.654 35.7212 15.9357 36.4789 16.8296C37.1741 17.6514 38.1687 17.9939 39.3518 17.9939C41.3826 17.9939 42.5091 16.6834 42.5091 16.6834L42.4072 17.3196C42.3689 17.5628 42.5555 17.7808 42.7985 17.7808H44.8531C45.18 17.7808 45.4555 17.543 45.5071 17.2196L46.7399 9.38598C46.7789 9.14504 46.5929 8.92609 46.3492 8.92609ZM43.1698 13.3807C42.9496 14.6883 41.9154 15.566 40.5966 15.566C39.9342 15.566 39.4047 15.3529 39.065 14.949C38.7279 14.5479 38.5996 13.9768 38.7069 13.341C38.9125 12.0444 39.9642 11.1382 41.2631 11.1382C41.9106 11.1382 42.4372 11.3539 42.784 11.7614C43.1314 12.1731 43.2694 12.7475 43.1698 13.3807ZM56.2048 8.92577H58.497C58.818 8.92577 59.0052 9.28702 58.8228 9.55124L51.1995 20.5931C51.0761 20.772 50.8727 20.8784 50.6555 20.8784H48.3662C48.0439 20.8784 47.8557 20.5142 48.0423 20.2493L50.416 16.8872L47.8914 9.4526C47.8041 9.1942 47.9943 8.92577 48.2682 8.92577H50.5204C50.8131 8.92577 51.0712 9.11852 51.1557 9.39956L52.4955 13.8898L55.6569 9.21716C55.7807 9.03476 55.9863 8.92577 56.2048 8.92577Z" fill="#253B80"/>
<path fill-rule="evenodd" clip-rule="evenodd" d="M81.0567 17.3201L83.0115 4.84C83.0415 4.64628 83.2087 4.50365 83.4031 4.50301H85.6037C85.8467 4.50301 86.0333 4.72163 85.995 4.96354L84.0673 17.2189C84.0171 17.5423 83.7399 17.78 83.4134 17.78H81.448C81.205 17.78 81.0184 17.562 81.0567 17.3201ZM66.0863 4.50365H61.3225C60.9973 4.50365 60.7201 4.74136 60.6692 5.06412L58.7428 17.3201C58.7044 17.562 58.891 17.78 59.1344 17.78H61.5787C61.8059 17.78 62.0003 17.6138 62.0357 17.3874L62.5823 13.9133C62.6326 13.5896 62.9104 13.3522 63.2356 13.3522H64.7427C67.8809 13.3522 69.6912 11.8286 70.1647 8.80954C70.3784 7.48874 70.1731 6.45091 69.5568 5.72388C68.8803 4.92603 67.6804 4.50365 66.0863 4.50365ZM66.6359 8.97998C66.3761 10.695 65.0701 10.695 63.8067 10.695H63.0886L63.5937 7.49197C63.6237 7.29857 63.7893 7.15595 63.985 7.15595H64.3144C65.1739 7.15595 65.9861 7.15594 66.4051 7.64785C66.6552 7.94151 66.7313 8.37747 66.6359 8.97998ZM80.3229 8.925H78.0436C77.8476 8.925 77.6813 9.06763 77.652 9.26135L77.5511 9.90138L77.3909 9.66949C76.8972 8.95023 75.7969 8.70994 74.6978 8.70994C72.1771 8.70994 70.0251 10.6255 69.6058 13.3127C69.3886 14.6529 69.6971 15.9346 70.4548 16.8285C71.1513 17.6503 72.1446 17.9928 73.3277 17.9928C75.3585 17.9928 76.4846 16.6823 76.4846 16.6823L76.3831 17.3185C76.3448 17.5617 76.5314 17.7797 76.776 17.7797H78.8297C79.1549 17.7797 79.432 17.542 79.483 17.2185L80.7164 9.38489C80.7541 9.14395 80.5675 8.925 80.3229 8.925ZM77.1437 13.3797C76.9249 14.6872 75.8894 15.5649 74.5702 15.5649C73.9092 15.5649 73.3786 15.3518 73.0386 14.9479C72.7015 14.5469 72.5748 13.9757 72.6809 13.3399C72.8875 12.0433 73.9378 11.1371 75.2367 11.1371C75.8845 11.1371 76.4108 11.3528 76.7579 11.7603C77.1067 12.172 77.2446 12.7464 77.1437 13.3797Z" fill="#179BD7"/>
</svg>
