<svg width="110" height="16" viewBox="0 0 110 16" fill="none" xmlns="http://www.w3.org/2000/svg">
<path d="M36.2691 3.66016H36.3056C36.5252 3.66016 36.6532 3.78036 36.6532 3.94062V11.1392C36.6532 11.2594 36.5252 11.393 36.3056 11.393C36.141 11.393 35.9581 11.2995 35.9581 11.1392V3.91391C35.9581 3.78036 36.0861 3.66016 36.2691 3.66016ZM26.8849 4.03411H33.3422C33.5617 4.03411 33.6898 4.19438 33.6898 4.31458C33.6898 4.43478 33.5617 4.56833 33.3422 4.56833H27.2324V7.57332H32.7568C32.9215 7.57332 33.1044 7.6668 33.1044 7.82707C33.1044 7.94727 32.9764 8.08082 32.7568 8.08082H27.2873V11.1793C27.2507 11.3396 27.0678 11.4598 26.8666 11.4598C26.6471 11.4598 26.4824 11.3396 26.4824 11.1793V4.32793H26.519C26.5139 4.29067 26.5195 4.25305 26.5356 4.21749C26.5517 4.18194 26.5778 4.14925 26.6123 4.12154C26.6468 4.09383 26.6889 4.07173 26.7359 4.05667C26.7828 4.04161 26.8336 4.03392 26.8849 4.03411ZM45.635 6.26448C45.635 6.10421 45.4703 6.01072 45.2874 6.01072C45.0679 6.01072 44.9398 6.13092 44.9398 6.26448V9.26946C44.9398 10.2978 43.7874 11.0992 42.3789 11.0724C40.8788 11.0724 40.0191 10.3646 40.0191 9.24275V6.26448C40.0191 6.10421 39.8545 6.01072 39.6715 6.01072C39.5069 6.01072 39.324 6.13092 39.324 6.26448V9.33624C39.324 10.605 40.4398 11.5399 42.2691 11.5399C43.385 11.5666 44.4459 11.1392 44.9581 10.418V11.1926C44.9581 11.3529 45.1228 11.4464 45.3057 11.4464C45.5252 11.4464 45.6533 11.3262 45.6533 11.1926H45.6167V6.26448H45.635ZM52.1289 6.30454C52.1289 6.42474 51.9643 6.51823 51.7813 6.51823H49.4216V9.96395C49.4216 10.7386 50.0252 11.019 50.9216 11.019C51.2143 11.019 51.5253 10.9923 51.7813 10.9255C51.946 10.9255 52.074 11.019 52.074 11.1392C52.074 11.2327 51.9826 11.3262 51.8545 11.3529C51.507 11.4464 51.1228 11.4731 50.7935 11.4731C49.6777 11.4731 48.7447 11.0057 48.7447 10.0174V6.51823H47.9399C47.7752 6.51823 47.5923 6.39803 47.5923 6.26448C47.5923 6.14428 47.7569 6.05079 47.9399 6.05079H48.7447V4.56833C48.7447 4.44813 48.8728 4.31458 49.0374 4.31458H49.074C49.2387 4.31458 49.4216 4.43477 49.4216 4.56833V6.05079H51.7813C51.9643 6.05079 52.1289 6.17099 52.1289 6.30454ZM57.6167 6.51823C57.7814 6.51823 57.9643 6.42474 57.9643 6.30454C57.9643 6.18435 57.7997 6.05079 57.6167 6.05079H55.257V4.56833C55.257 4.44813 55.0923 4.31458 54.9094 4.31458H54.8728C54.7082 4.31458 54.5801 4.43477 54.5801 4.56833V6.05079H53.7753C53.6106 6.05079 53.4277 6.14428 53.4277 6.26448C53.4277 6.38467 53.5923 6.51823 53.7753 6.51823H54.5801V10.0174C54.5801 11.0057 55.5131 11.4731 56.6289 11.4731C56.9765 11.4731 57.3607 11.4464 57.6899 11.3529C57.818 11.3262 57.9094 11.2327 57.9094 11.1392C57.9094 11.019 57.7814 10.9255 57.6167 10.9255C57.3606 10.9923 57.068 11.019 56.757 11.019C55.8606 11.019 55.257 10.7386 55.257 9.96395V6.51823H57.6167ZM59.2448 8.72188C59.2448 7.14594 60.7448 5.90388 62.757 5.90388C64.8607 5.90388 66.1778 7.14594 66.1778 8.72188C66.1778 8.84208 66.0131 8.97564 65.8302 8.97564H60.0131C60.1412 10.3112 61.4765 11.0858 62.9217 11.0858C63.818 11.0858 64.7144 10.8053 65.318 10.3379C65.3546 10.3112 65.4461 10.2711 65.5375 10.2711C65.7022 10.2711 65.8851 10.3913 65.8851 10.5249C65.8851 10.5917 65.8485 10.6451 65.757 10.7119C65.0253 11.2995 63.9643 11.6067 62.8851 11.58C60.9095 11.58 59.2448 10.4581 59.2448 8.76195V8.72188ZM68.9583 7.60002C69.4339 6.70521 70.5863 6.05079 71.9034 5.98401C72.1229 5.98401 72.2876 6.10421 72.2876 6.29119C72.2876 6.41139 72.1595 6.57165 71.94 6.57165H71.9034C70.3119 6.69185 68.9583 7.53325 68.9583 9.26946V11.2594C68.9217 11.4197 68.7936 11.5132 68.5741 11.5132C68.4095 11.5132 68.2266 11.393 68.2266 11.2594V6.29119C68.2632 6.13092 68.3912 6.03743 68.6107 6.03743C68.7754 6.03743 68.9583 6.15763 68.9583 6.29119V7.60002ZM83.5742 5.70355C83.062 5.70355 82.6413 5.9573 82.5132 6.3179L81.2693 9.20268L80.0254 6.3179C79.8974 5.94394 79.4218 5.66348 78.873 5.66348H78.7449C78.1961 5.66348 77.7205 5.91723 77.5925 6.3179L76.3486 9.17597L75.1595 6.29119C75.0315 5.94395 74.6107 5.67684 74.0985 5.67684H74.062C73.5132 5.67684 73.0742 6.02408 73.0742 6.42474C73.0742 6.54494 73.1107 6.6785 73.1656 6.79869L75.0864 10.8053C75.2144 11.206 75.69 11.4865 76.2754 11.5132H76.3669C76.9156 11.5132 77.3913 11.2327 77.5559 10.8321L78.7998 7.97398L80.0437 10.8321C80.1718 11.2327 80.684 11.5132 81.2327 11.5132H81.3242C81.9279 11.5132 82.4401 11.2327 82.5681 10.8053L84.4889 6.77199C84.5254 6.6785 84.5803 6.5583 84.5803 6.46481V6.4381C84.562 6.02408 84.1413 5.70355 83.5742 5.70355ZM86.5742 5.98401C87.3791 5.79703 88.2023 5.67684 89.062 5.70355C90.2511 5.70355 91.1108 5.9573 91.7511 6.35797C92.3548 6.85212 92.6474 7.50654 92.6109 8.16096V10.6985C92.6109 11.1392 92.1352 11.4731 91.5499 11.4731C91.0011 11.4731 90.5255 11.1926 90.4889 10.792C89.8852 11.2594 89.0255 11.5399 88.1291 11.4998C86.7206 11.4998 85.4767 10.8855 85.4767 9.76361C85.4767 8.52155 86.7572 7.93391 88.6047 7.93391C89.245 7.93391 89.8852 8.00069 90.4889 8.1476V8.05411C90.4889 7.37298 89.9401 7.02574 88.8242 7.02574C88.312 7.02574 87.7999 7.05245 87.2877 7.186C87.1962 7.21271 87.0681 7.21272 86.995 7.21272C86.4828 7.23943 86.062 6.95896 86.062 6.59836C86.0254 6.33125 86.2267 6.0775 86.5742 5.98401ZM99.1963 6.23777C99.3243 5.89052 99.745 5.67684 100.221 5.67684C100.824 5.67684 101.282 6.02408 101.282 6.42474V6.45145C101.282 6.57165 101.245 6.70521 101.154 6.82541L98.8487 10.8321C98.6292 11.2327 98.117 11.4865 97.5682 11.5132H97.4401C96.8365 11.4865 96.3792 11.206 96.1962 10.8053L93.7999 6.79869C93.7084 6.6785 93.6718 6.54494 93.6718 6.42474C93.7084 5.98401 94.184 5.67684 94.7328 5.67684C95.245 5.67684 95.6657 5.93059 95.7938 6.26448L97.4584 9.52321L99.1963 6.23777ZM102.16 8.84209C102.251 10.3913 104.08 11.6067 106.221 11.5132C107.208 11.5132 108.141 11.2995 108.91 10.8321C109.129 10.7119 109.202 10.5516 109.202 10.3646V10.3379C109.202 9.99066 108.818 9.72354 108.343 9.72354C108.178 9.72354 107.959 9.75026 107.83 9.84375C107.355 10.0975 106.806 10.2444 106.239 10.2177C105.306 10.2444 104.483 9.77697 104.355 9.09584H108.763C109.312 9.06913 109.751 8.72188 109.696 8.32122V8.20102C109.696 6.79869 108.032 5.62341 105.983 5.66348C103.715 5.66348 102.123 6.99903 102.123 8.61504V8.84209H102.16Z" fill="#10112B"/>
<path d="M59.9883 8.48398C60.1162 7.32294 61.2679 6.42578 62.7303 6.42578C64.3938 6.42578 65.2895 7.40211 65.3809 8.48398H59.9883ZM90.5161 9.40753C90.5161 10.0144 89.7849 10.3839 88.7612 10.3575C88.0848 10.3575 87.573 10.1068 87.573 9.68459V9.6582C87.573 9.19643 88.1762 8.89298 89.1085 8.89298C89.5838 8.89298 90.0956 8.98533 90.5161 9.10408V9.40753ZM105.999 6.97991C105.104 6.97991 104.5 7.44169 104.336 8.18053H107.626C107.498 7.46807 106.895 6.97991 105.999 6.97991Z" fill="white"/>
<path d="M15.4163 0.123661C25.0041 -0.929477 18.8613 5.04275 15.8902 6.72244C17.9317 7.86889 20.0279 9.48193 20.9211 11.3083C22.5798 14.6543 18.4968 15.1475 15.4163 14.3077C12.0441 13.4412 9.07302 11.5882 7.10441 9.41527C6.55758 9.41527 5.95606 9.34862 5.391 9.22864C6.5029 11.5215 6.97682 13.8678 6.66695 15.7874C6.66695 11.9215 4.15151 8.08218 0.524178 4.88278C-0.751769 3.76299 0.560632 2.93647 1.70898 4.01627C2.49278 4.80279 3.20366 5.61598 3.84164 6.45582C5.09936 3.30974 11.2239 0.563579 15.4163 0.123661ZM14.0492 5.81594C15.9267 4.97609 21.632 0.496926 16.3095 0.896851C13.2472 1.15014 9.52871 3.21642 7.99758 4.54951C10.1302 4.36287 12.2993 5.04275 14.0492 5.81594ZM8.76314 9.29529C10.4766 10.695 12.8097 12.0548 15.3252 12.548C16.7834 12.828 18.3874 12.708 17.8041 11.1883C17.2026 9.78854 15.6715 8.5621 14.1768 7.62894C13.7576 7.84223 13.2836 8.06885 12.8097 8.21549C11.5338 8.7354 10.1667 9.10866 8.76314 9.29529Z" fill="#EBA12A"/>
</svg>
