<svg width="46" height="20" viewBox="0 0 46 20" fill="none" xmlns="http://www.w3.org/2000/svg">
<g id="Group 1000002466">
<path id="Stripe" fill-rule="evenodd" clip-rule="evenodd" d="M25.1493 3.38152L22.0207 4.05296V1.51642L25.1493 0.857422V3.38152ZM12.4341 2.29897L9.39277 2.94553L9.3803 12.9052C9.3803 14.7454 10.7639 16.1007 12.6086 16.1007C13.6307 16.1007 14.3786 15.9142 14.7899 15.6904V13.1663C14.391 13.3279 12.4216 13.8999 12.4216 12.0597V7.64558H14.7899V4.99714H12.4216L12.4341 2.29897ZM45.7226 10.4796C45.7226 7.29649 44.177 4.78483 41.223 4.78483C38.2564 4.78483 36.4615 7.29649 36.4615 10.4547C36.4615 14.1974 38.5805 16.0873 41.6218 16.0873C43.1051 16.0873 44.2269 15.7516 45.0745 15.2791V12.7923C44.2269 13.2151 43.2547 13.4762 42.0207 13.4762C40.8116 13.4762 39.7397 13.0534 39.6026 11.5862H45.6977C45.6977 11.5181 45.7021 11.3639 45.7073 11.1858L45.7073 11.1833L45.7073 11.1826C45.7144 10.9389 45.7226 10.6515 45.7226 10.4796ZM39.567 9.29798C39.567 7.89294 40.4271 7.30855 41.2123 7.30855C41.9727 7.30855 42.7829 7.89294 42.7829 9.29798H39.567ZM5.06651 7.48459C4.4059 7.48459 4.00703 7.6711 4.00703 8.15603C4.00703 8.68549 4.69348 8.9184 5.5451 9.20734C6.93344 9.67839 8.76074 10.2984 8.76847 12.595C8.76847 14.8207 6.98605 16.1014 4.39343 16.1014C3.32149 16.1014 2.14982 15.89 0.990625 15.3926V12.4333C2.03764 13.0053 3.35888 13.428 4.39343 13.428C5.09144 13.428 5.59002 13.2415 5.59002 12.6696C5.59002 12.0831 4.8459 11.815 3.94753 11.4914C2.57939 10.9985 0.853516 10.3768 0.853516 8.30524C0.853516 6.10442 2.53622 4.78641 5.06651 4.78641C6.10107 4.78641 7.12316 4.94806 8.15771 5.35838V8.28037C7.21041 7.77057 6.01382 7.48459 5.06651 7.48459ZM18.6671 5.91875L18.4677 4.99863H15.7754V15.8784H18.8915V8.50502C19.6269 7.5476 20.8734 7.72167 21.2598 7.85845V4.99863C20.8609 4.84942 19.4025 4.57587 18.6671 5.91875ZM22.0198 4.99708H25.1484V15.8768H22.0198V4.99708ZM29.2136 5.75468C29.6498 5.35679 30.4351 4.78483 31.6566 4.78483C33.8379 4.78483 35.8945 6.7494 35.907 10.3553C35.907 14.2968 33.8753 16.0873 31.6441 16.0873C30.5473 16.0873 29.8866 15.6273 29.4379 15.304L29.4254 18.8228L26.3093 19.4818V4.98377H29.0515L29.2136 5.75468ZM29.4384 12.7666C29.7376 13.0899 30.1738 13.351 30.9092 13.351C32.0559 13.351 32.8287 12.1076 32.8287 10.4414C32.8287 8.81259 32.0435 7.54433 30.9092 7.54433C30.1987 7.54433 29.75 7.79301 29.4259 8.15359L29.4384 12.7666Z" fill="#6461FC"/>
</g>
</svg>
