<svg width="105" height="105" viewBox="0 0 105 105" fill="none" xmlns="http://www.w3.org/2000/svg">
<g clip-path="url(#clip0_90_6179)">
<path d="M105 71.0589C105 58.0292 97.5251 46.4006 86.3299 40.7441C85.9822 65.7268 65.7276 85.9815 40.7449 86.3292C46.4013 97.5243 58.0299 104.999 71.0596 104.999C77.1687 104.999 83.1095 103.372 88.3294 100.281L104.852 104.851L100.282 88.3287C103.373 83.1088 105 77.1679 105 71.0589Z" fill="url(#paint0_linear_90_6179)"/>
<path d="M80.1856 40.0928C80.1856 17.9852 62.2004 0 40.0928 0C17.9852 0 0 17.9852 0 40.0928C0 47.2977 1.9178 54.3129 5.55954 60.4716L0.1474 80.0374L19.7139 74.626C25.8727 78.2678 32.8878 80.1856 40.0928 80.1856C62.2004 80.1856 80.1856 62.2004 80.1856 40.0928ZM33.9404 30.7617H27.7881C27.7881 23.9765 33.3076 18.457 40.0928 18.457C46.878 18.457 52.3975 23.9765 52.3975 30.7617C52.3975 34.2056 50.9395 37.5157 48.396 39.842L43.1689 44.6261V49.4238H37.0166V41.9169L44.2424 35.3031C45.5338 34.1215 46.2451 32.5089 46.2451 30.7617C46.2451 27.3691 43.4854 24.6094 40.0928 24.6094C36.7002 24.6094 33.9404 27.3691 33.9404 30.7617ZM37.0166 55.5762H43.1689V61.7285H37.0166V55.5762Z" fill="url(#paint1_linear_90_6179)"/>
</g>
<defs>
<linearGradient id="paint0_linear_90_6179" x1="42.8369" y1="49.5685" x2="106.803" y2="63.3927" gradientUnits="userSpaceOnUse">
<stop stop-color="#FFA360"/>
<stop offset="0.57" stop-color="#F64B4D"/>
<stop offset="1" stop-color="#F25D6D"/>
</linearGradient>
<linearGradient id="paint1_linear_90_6179" x1="2.61069" y1="11.0122" x2="82.436" y2="28.2636" gradientUnits="userSpaceOnUse">
<stop stop-color="#FFA360"/>
<stop offset="0.57" stop-color="#F64B4D"/>
<stop offset="1" stop-color="#F25D6D"/>
</linearGradient>
<clipPath id="clip0_90_6179">
<rect width="105" height="105" fill="white"/>
</clipPath>
</defs>
</svg>
