<svg width="103" height="103" viewBox="0 0 103 103" fill="none" xmlns="http://www.w3.org/2000/svg">
<g clip-path="url(#clip0_90_6186)">
<path d="M52.573 8.58333H47.8522C46.4359 3.64792 41.8867 0 36.4792 0C31.0717 0 26.5226 3.64792 25.1063 8.58333H20.3855C18.6259 8.58333 17.1667 10.0425 17.1667 11.8021V18.2396C17.1667 22.3596 20.5572 25.75 24.6772 25.75H48.2813C52.4013 25.75 55.7917 22.3596 55.7917 18.2396V11.8021C55.7917 10.0425 54.3326 8.58333 52.573 8.58333Z" fill="url(#paint0_linear_90_6186)"/>
<path d="M61.1563 12.875H60.0833V18.2396C60.0833 24.7629 54.8046 30.0417 48.2813 30.0417H24.6771C18.1538 30.0417 12.875 24.7629 12.875 18.2396V12.875H11.8021C5.27875 12.875 0 18.1537 0 24.6771V78.3229C0 84.8462 5.27875 90.125 11.8021 90.125H40.0842C37.9383 85.5329 36.6508 80.4688 36.5221 75.1042H16.0938C14.3342 75.1042 12.875 73.645 12.875 71.8854C12.875 70.1258 14.3342 68.6667 16.0938 68.6667H36.8654C37.2517 66.0487 37.8954 63.5596 38.7537 61.1562H16.0938C14.3342 61.1562 12.875 59.6971 12.875 57.9375C12.875 56.1779 14.3342 54.7188 16.0938 54.7188H41.8438C43.5175 51.9721 45.4917 49.44 47.8092 47.2083H16.0938C14.3342 47.2083 12.875 45.7492 12.875 43.9896C12.875 42.23 14.3342 40.7708 16.0938 40.7708H56.6071C61.5425 38.1958 67.0788 36.6508 72.9583 36.5221V24.6771C72.9583 18.1537 67.6796 12.875 61.1563 12.875Z" fill="url(#paint1_linear_90_6186)"/>
<path d="M74.0312 45.0625C58.0577 45.0625 45.0625 58.0577 45.0625 74.0312C45.0625 90.0048 58.0577 103 74.0312 103C90.0048 103 103 90.0048 103 74.0312C103 58.0577 90.0048 45.0625 74.0312 45.0625ZM78.3229 85.8333C78.3229 88.2023 76.4045 90.125 74.0312 90.125C71.658 90.125 69.7396 88.2023 69.7396 85.8333V70.8125C69.7396 68.4435 71.658 66.5208 74.0312 66.5208C76.4045 66.5208 78.3229 68.4435 78.3229 70.8125V85.8333ZM74.0312 64.375C71.6622 64.375 69.7396 62.4523 69.7396 60.0833C69.7396 57.7143 71.6622 55.7917 74.0312 55.7917C76.4002 55.7917 78.3229 57.7143 78.3229 60.0833C78.3229 62.4523 76.4002 64.375 74.0312 64.375Z" fill="url(#paint2_linear_90_6186)"/>
</g>
<defs>
<linearGradient id="paint0_linear_90_6186" x1="18.4243" y1="3.53633" x2="54.8444" y2="15.3428" gradientUnits="userSpaceOnUse">
<stop stop-color="#FFA360"/>
<stop offset="0.57" stop-color="#F64B4D"/>
<stop offset="1" stop-color="#F25D6D"/>
</linearGradient>
<linearGradient id="paint1_linear_90_6186" x1="2.37539" y1="23.484" x2="75.3577" y2="38.3804" gradientUnits="userSpaceOnUse">
<stop stop-color="#FFA360"/>
<stop offset="0.57" stop-color="#F64B4D"/>
<stop offset="1" stop-color="#F25D6D"/>
</linearGradient>
<linearGradient id="paint2_linear_90_6186" x1="46.9488" y1="53.0193" x2="104.626" y2="65.4842" gradientUnits="userSpaceOnUse">
<stop stop-color="#FFA360"/>
<stop offset="0.57" stop-color="#F64B4D"/>
<stop offset="1" stop-color="#F25D6D"/>
</linearGradient>
<clipPath id="clip0_90_6186">
<rect width="103" height="103" fill="white"/>
</clipPath>
</defs>
</svg>
