<svg width="103" height="103" viewBox="0 0 103 103" fill="none" xmlns="http://www.w3.org/2000/svg">
<path d="M86.761 80.9389C84.6866 74.7651 76.4188 70.9006 70.5241 68.3101C68.2148 67.2986 61.8216 65.5827 61.0532 62.675C60.7782 61.6275 60.8153 60.6397 61.0409 59.6931C60.6855 59.7611 60.325 59.8013 59.9522 59.8013H56.1113C53.045 59.8013 50.5534 57.3066 50.5534 54.2424C50.5534 51.1802 53.046 48.6907 56.1113 48.6907H59.9522C61.2211 48.6907 62.4242 49.1202 63.3944 49.8865C64.8169 49.697 66.1888 49.3931 67.4681 48.9945C69.148 45.475 70.4582 41.2664 70.7517 37.6439C72.0052 22.1445 62.5035 13.0764 48.8797 14.644C38.9742 15.7842 33.0568 23.1704 32.4172 32.6793C31.7703 42.3716 35.364 49.5301 39.1812 54.7811C40.8529 57.0769 42.609 58.5529 42.3392 61.3195C42.026 64.5908 38.5282 65.5023 36.0263 66.5076C33.062 67.6983 29.869 69.5049 28.361 70.3402C23.1667 73.2088 17.4657 76.6634 16.1844 81.389C13.3467 91.8621 22.9299 95.0345 30.8413 96.4991C37.631 97.7516 45.287 97.8505 51.5844 97.8505C62.9752 97.8505 83.4578 97.3942 86.761 88.8318C87.7004 86.4021 87.2976 82.5303 86.761 80.9389Z" fill="url(#paint0_linear_90_6194)"/>
<path d="M62.383 52.6777C61.8618 51.8836 60.9708 51.3562 59.9542 51.3562H56.1134C54.5107 51.3562 53.218 52.6509 53.218 54.2453C53.218 55.846 54.5107 57.1427 56.1134 57.1427H59.9542C61.0759 57.1427 62.0276 56.5031 62.5076 55.5782C67.8626 55.1569 72.5202 53.5213 75.7894 51.1059C76.5403 51.59 77.4282 51.8732 78.3861 51.8732H78.6271C81.2969 51.8732 83.4557 49.7123 83.4557 47.0395V37.3904C83.4557 35.4684 82.3289 33.8101 80.7036 33.0397C79.9949 17.5454 67.1683 5.15039 51.5 5.15039C35.8316 5.15039 23.003 17.5454 22.2974 33.0397C20.669 33.8112 19.5432 35.4684 19.5432 37.3904V47.0395C19.5432 49.7123 21.7042 51.8732 24.3677 51.8732H24.6118C27.2775 51.8732 29.4395 49.7123 29.4395 47.0395V37.3904C29.4395 35.4962 28.3446 33.8627 26.7532 33.0727C27.4423 20.0174 38.2758 9.61132 51.5 9.61132C64.719 9.61132 75.5577 20.0174 76.2437 33.0727C74.6544 33.8637 73.5605 35.4962 73.5605 37.3904V47.0395C73.5605 47.6801 73.6852 48.2765 73.9045 48.8337C71.0906 50.8474 66.9943 52.2822 62.383 52.6777Z" fill="url(#paint1_linear_90_6194)"/>
<defs>
<linearGradient id="paint0_linear_90_6194" x1="18.0076" y1="25.9201" x2="90.1778" y2="39.3226" gradientUnits="userSpaceOnUse">
<stop stop-color="#FFA360"/>
<stop offset="0.57" stop-color="#F64B4D"/>
<stop offset="1" stop-color="#F25D6D"/>
</linearGradient>
<linearGradient id="paint1_linear_90_6194" x1="21.6241" y1="12.2907" x2="83.8308" y2="28.8168" gradientUnits="userSpaceOnUse">
<stop stop-color="#FFA360"/>
<stop offset="0.57" stop-color="#F64B4D"/>
<stop offset="1" stop-color="#F25D6D"/>
</linearGradient>
</defs>
</svg>
