<svg width="44" height="44" viewBox="0 0 44 44" fill="none" xmlns="http://www.w3.org/2000/svg">
<g clip-path="url(#clip0_123_2815)">
<path d="M22.0002 43.9998C17.3016 44.0015 12.7259 42.4989 8.9432 39.7119C5.16046 36.925 2.36941 33.0001 0.978777 28.5121C-0.411857 24.024 -0.329011 19.2086 1.21518 14.7711C2.75938 10.3336 5.68379 6.50701 9.56016 3.85181C11.9431 2.20971 14.6266 1.05385 17.4569 0.450418C20.2873 -0.153012 23.2089 -0.192152 26.0544 0.33524C28.8999 0.862632 31.6133 1.94619 34.0394 3.52386C36.4655 5.10154 38.5565 7.14232 40.1927 9.52934C41.8289 11.9164 42.9781 14.6027 43.5745 17.4345C44.171 20.2664 44.2029 23.188 43.6684 26.0322C43.134 28.8764 42.0437 31.5872 40.46 34.0094C38.8763 36.4315 36.8304 38.5175 34.4393 40.1477C30.78 42.6646 26.4414 44.0081 22.0002 43.9998ZM22.0002 2.57926C17.8459 2.58314 13.8027 3.92028 10.4652 6.39392C7.12779 8.86757 4.67242 12.3471 3.46039 16.3206C2.24836 20.294 2.34368 24.5516 3.73232 28.4668C5.12096 32.3821 7.72958 35.7483 11.1744 38.0701C14.6192 40.3919 18.7183 41.5467 22.8685 41.3647C27.0187 41.1826 31.0009 39.6733 34.2292 37.0588C37.4575 34.4443 39.7613 30.8627 40.8019 26.8409C41.8424 22.8191 41.5645 18.5695 40.0093 14.7175C38.5667 11.1244 36.0793 8.04686 32.8686 5.88289C29.658 3.71892 25.8719 2.56809 22.0002 2.57926Z" fill="#FFFAF3"/>
<path d="M22 43.9998C19.0353 43.9998 16.3406 41.5707 14.4112 37.1615C12.6296 33.0903 11.6494 27.7034 11.6494 22.0002C11.6494 16.2969 12.6296 10.9084 14.4112 6.83883C16.3406 2.42877 19.0353 -0.000244141 22 -0.000244141C24.9647 -0.000244141 27.6586 2.42877 29.588 6.83883C31.3696 10.9093 32.3498 16.2969 32.3498 22.0002C32.3498 27.7034 31.3696 33.092 29.588 37.1615C27.6586 41.5707 24.9639 43.9998 22 43.9998ZM22 2.57924C20.1505 2.57924 18.246 4.5087 16.774 7.87234C15.1326 11.6246 14.2289 16.6426 14.2289 22.0002C14.2289 27.3578 15.1326 32.3749 16.774 36.1272C18.246 39.4908 20.1505 41.4203 22 41.4203C23.8495 41.4203 25.7532 39.4908 27.2252 36.1272C28.8666 32.3749 29.7703 27.3569 29.7703 22.0002C29.7703 16.6435 28.8666 11.6246 27.2252 7.87234C25.7532 4.5087 23.8487 2.57924 22 2.57924Z" fill="#FFFAF3"/>
<path d="M41.204 15.5228H2.79463C2.45256 15.5228 2.12451 15.387 1.88264 15.1451C1.64077 14.9032 1.50488 14.5752 1.50488 14.2331C1.50488 13.891 1.64077 13.563 1.88264 13.3211C2.12451 13.0792 2.45256 12.9434 2.79463 12.9434H41.204C41.5461 12.9434 41.8741 13.0792 42.116 13.3211C42.3579 13.563 42.4938 13.891 42.4938 14.2331C42.4938 14.5752 42.3579 14.9032 42.116 15.1451C41.8741 15.387 41.5461 15.5228 41.204 15.5228Z" fill="#FFFAF3"/>
<path d="M41.204 31.056H2.79463C2.45256 31.056 2.12451 30.9202 1.88264 30.6783C1.64077 30.4364 1.50488 30.1084 1.50488 29.7663C1.50488 29.4242 1.64077 29.0962 1.88264 28.8543C2.12451 28.6124 2.45256 28.4766 2.79463 28.4766H41.204C41.5461 28.4766 41.8741 28.6124 42.116 28.8543C42.3579 29.0962 42.4938 29.4242 42.4938 29.7663C42.4938 30.1084 42.3579 30.4364 42.116 30.6783C41.8741 30.9202 41.5461 31.056 41.204 31.056Z" fill="#FFFAF3"/>
</g>
<defs>
<clipPath id="clip0_123_2815">
<rect width="44" height="44" fill="white"/>
</clipPath>
</defs>
</svg>
