<svg fill="none" height="26" viewBox="0 0 150 26" width="150" xmlns="http://www.w3.org/2000/svg">
<path clip-rule="evenodd" d="M25.026 0.0803223H0V16.4889H3.06848V25.9197L11.0334 16.4889H25.026V0.0803223ZM11.0334 16.4889L22.3102 3.13658H3.06848V16.4889H11.0334Z" fill="#008CFF" fill-rule="evenodd"></path>
<g clip-path="url(#clip0_102_95531)">
<path d="M46.7683 2.35791H33.6387V5.44723H38.5553V20.379H41.8516V5.44723H46.7683V2.35791Z" fill="#202223"></path>
<path d="M51.6845 8.09985C49.8302 8.09985 48.3377 8.68373 47.2053 9.8498C46.0729 11.0175 45.5059 12.5538 45.5059 14.4585C45.5059 16.3633 46.0897 17.8911 47.2558 19.0404C48.4236 20.1896 49.9766 20.7651 51.915 20.7651C53.8534 20.7651 55.5192 20.0533 57.0639 18.6281L55.4671 16.3364C54.3851 17.4183 53.2022 17.9584 51.915 17.9584C50.9879 17.9584 50.2206 17.706 49.6115 17.1996C49.0024 16.6931 48.6541 15.9864 48.5683 15.0761H57.4492V14.4585C57.4492 12.4326 56.9427 10.8678 55.9298 9.76062C54.9169 8.65344 53.5018 8.09985 51.6811 8.09985H51.6845ZM48.6473 13.0434C48.9048 11.4466 49.8656 10.649 51.5314 10.649C52.3205 10.649 52.9599 10.8594 53.4496 11.28C53.9392 11.7007 54.2085 12.2879 54.2606 13.0434H48.649H48.6473Z" fill="#202223"></path>
<path d="M70.3507 8.48486H66.5143L64.2495 11.936L62.0099 8.48486H58.1735L62.3448 14.1234L57.6064 20.3794H61.4176L64.2495 16.363L67.0814 20.3794H70.9178L66.1795 14.1234L70.3507 8.48486Z" fill="#202223"></path>
<path d="M136.685 8.55005H133.527V20.379H136.685V8.55005Z" fill="#202223"></path>
<path d="M136.632 3.0664C136.433 2.86785 136.196 2.71136 135.935 2.60536C135.674 2.49935 135.395 2.44719 135.114 2.45224C134.833 2.44887 134.554 2.50104 134.293 2.60536C134.032 2.71136 133.795 2.86785 133.596 3.0664C133.199 3.4635 133.007 3.96829 133.007 4.58414C132.994 4.86346 133.039 5.14446 133.14 5.40527C133.241 5.66608 133.396 5.90333 133.594 6.10188C133.793 6.30043 134.03 6.45523 134.291 6.55619C134.552 6.65715 134.833 6.70258 135.112 6.68912C135.728 6.68912 136.235 6.49898 136.632 6.10188C136.832 5.90333 136.99 5.66776 137.096 5.40527C137.202 5.14278 137.252 4.86346 137.246 4.58246C137.251 4.30146 137.199 4.02214 137.093 3.76133C136.987 3.50052 136.83 3.26327 136.632 3.06472V3.0664Z" fill="#202223"></path>
<path d="M95.9375 8.09985C94.1354 8.09985 92.8398 8.88901 92.0506 10.469H91.9984C91.3456 8.89069 90.1274 8.09985 88.3421 8.09985C86.5568 8.09985 85.3823 8.83012 84.7126 10.2873H84.6605V8.48518H81.5459V20.3797H84.6874V14.3559C84.6874 12.1415 85.4934 11.0344 87.107 11.0344C88.5322 11.0344 89.244 11.8589 89.244 13.5062V20.3797H92.3585V14.329C92.3585 12.1331 93.1561 11.0344 94.7529 11.0344C96.1949 11.0344 96.9151 11.8589 96.9151 13.5062V20.3797H100.082V12.8365C100.082 11.2918 99.6965 10.1157 98.9242 9.30967C98.1518 8.50369 97.1557 8.09985 95.9375 8.09985Z" fill="#202223"></path>
<path d="M112.079 10.1594H112.027C111.202 8.78637 109.882 8.09985 108.063 8.09985C106.432 8.09985 105.073 8.6669 103.982 9.79932C102.892 10.9317 102.347 12.4764 102.347 14.4333C102.347 16.3902 102.892 17.9349 103.982 19.0673C105.073 20.1997 106.432 20.7667 108.063 20.7667C109.882 20.7667 111.204 20.0802 112.027 18.7072H112.079V20.3797H115.221V8.48518H112.079V10.1577V10.1594ZM111.191 16.8529C110.598 17.4705 109.823 17.7801 108.86 17.7801C107.898 17.7801 107.122 17.4705 106.53 16.8529C105.937 16.2354 105.641 15.4294 105.641 14.4333C105.641 13.4372 105.937 12.6312 106.53 12.0137C107.122 11.3961 107.898 11.0865 108.86 11.0865C109.823 11.0865 110.598 11.3961 111.191 12.0137C111.783 12.6312 112.079 13.4389 112.079 14.4333C112.079 15.4277 111.783 16.2354 111.191 16.8529Z" fill="#202223"></path>
<path d="M127.32 10.1594H127.268C126.443 8.78637 125.122 8.09985 123.303 8.09985C121.673 8.09985 120.313 8.6669 119.223 9.79932C118.133 10.9317 117.587 12.4764 117.587 14.4333C117.587 16.3902 118.128 17.8995 119.209 19.0151C120.291 20.1307 121.646 20.6877 123.276 20.6877C125.043 20.6877 126.374 20.0281 127.266 18.7055H127.318V19.8127C127.318 20.9804 127.094 21.7898 126.648 22.2458C126.203 22.7001 125.439 22.9273 124.357 22.9273C123.275 22.9273 121.86 22.7304 120.212 22.335L119.645 25.3469C121.585 25.7238 123.197 25.9139 124.485 25.9139C126.389 25.9139 127.857 25.4933 128.886 24.652C129.916 23.8106 130.439 22.3871 130.456 20.3781V8.48518H127.315V10.1577L127.32 10.1594ZM126.431 16.8529C125.839 17.4705 125.063 17.7801 124.101 17.7801C123.138 17.7801 122.363 17.4705 121.77 16.8529C121.178 16.2354 120.882 15.4294 120.882 14.4333C120.882 13.4372 121.178 12.6312 121.77 12.0137C122.363 11.3961 123.138 11.0865 124.101 11.0865C125.063 11.0865 125.839 11.3961 126.431 12.0137C127.024 12.6312 127.32 13.4389 127.32 14.4333C127.32 15.4277 127.024 16.2354 126.431 16.8529Z" fill="#202223"></path>
<path d="M145.881 17.8053C144.904 17.8053 144.096 17.4924 143.462 16.8664C142.827 16.2405 142.509 15.4294 142.509 14.4333C142.509 13.4372 142.827 12.6279 143.462 12.0002C144.096 11.3743 144.904 11.0613 145.881 11.0613C146.859 11.0613 147.761 11.3356 148.636 11.8858L150 9.28614C148.73 8.49698 147.34 8.10156 145.829 8.10156C143.889 8.10156 142.311 8.68544 141.092 9.85151C139.874 11.0193 139.265 12.5471 139.265 14.4333C139.265 16.3196 139.874 17.8491 141.092 19.0151C142.311 20.1829 143.889 20.7651 145.829 20.7651C147.338 20.7651 148.73 20.3714 150 19.5805L148.636 16.9808C147.761 17.5311 146.842 17.8053 145.881 17.8053Z" fill="#202223"></path>
<path d="M76.8152 3.80664H73.6569V8.55168H71.4678V11.1901H73.6569V20.3806H76.8152V11.1901H79.2483V8.55168H76.8152V3.80664Z" fill="#202223"></path>
</g>
<defs>
<clipPath id="clip0_102_95531">
<rect fill="white" height="23.5569" transform="translate(33.6387 2.3584)" width="116.361"></rect>
</clipPath>
</defs>
</svg>