<svg width="137" height="39" viewBox="0 0 137 39" fill="none" xmlns="http://www.w3.org/2000/svg">
<g clip-path="url(#clip0_1_42)">
<path d="M42.51 32.01V29.88C44.15 31.5 46.04 32.35 48.06 32.35C49.77 32.35 50.75 31.53 50.75 30.24C50.75 28.62 49.19 28.44 47.4 28.24C45.09 27.97 42.31 27.62 42.31 24.6C42.31 22.07 44.38 20.6 47.11 20.6C49.84 20.6 51.44 21.51 52.53 22.35V24.46C51.13 22.99 49.29 22.26 47.18 22.24C45.27 22.24 44.34 23.13 44.34 24.42C44.34 25.91 45.96 26.13 47.76 26.33C50.09 26.6 52.83 27 52.83 30.08C52.83 32.46 51.01 34.03 48.16 34.03C45.31 34.03 43.83 33.14 42.52 32.01H42.51Z" fill="#121C2D"/>
<path d="M54.53 27.48V27.17C54.53 23.1 57.06 20.59 60.57 20.59C63.88 20.59 66.26 22.61 66.26 26.83V27.83H56.62C56.8 31.03 58.95 32.3 61.89 32.3C63.85 32.3 65.11 31.59 66 30.86V32.73C65.29 33.29 63.98 34.04 61.53 34.04C57.18 34.04 54.53 31.64 54.53 27.49V27.48ZM56.64 26.28H64.17C64.04 23.57 62.7 22.24 60.55 22.24C58.4 22.24 56.93 23.55 56.64 26.28Z" fill="#121C2D"/>
<path d="M68.44 20.82H70.48V25.2C70.92 21.91 72.59 20.6 75.06 20.6C78.39 20.6 79.99 22.67 79.99 26.2V33.82H77.92V26.62C77.92 23.98 76.88 22.31 74.3 22.31C72.14 22.31 70.5 23.95 70.5 27.11V33.82H68.43V20.82H68.44Z" fill="#121C2D"/>
<path d="M82.11 27.46V27.15C82.11 23.06 84.46 20.6 87.75 20.6C90.39 20.6 92.02 22.07 92.55 25.04V16.37H94.62V33.81H92.55V29.59C92.04 32.57 90.42 34.03 87.68 34.03C84.37 34.03 82.1 31.59 82.1 27.45L82.11 27.46ZM92.62 27.37V27.21C92.62 24.06 90.93 22.26 88.4 22.26C85.87 22.26 84.22 24.06 84.22 27.21V27.37C84.22 30.59 85.95 32.33 88.4 32.33C90.85 32.33 92.62 30.62 92.62 27.37Z" fill="#121C2D"/>
<path d="M96.27 36.19C96.27 34.75 97.38 33.7 99.98 33.52C100 33.52 100.02 33.5 100.02 33.48C100.02 33.46 100 33.44 99.98 33.44C97.69 33.44 96.85 32.88 96.85 31.77C96.85 30.75 97.92 29.79 100.52 29.77C100.54 29.77 100.56 29.75 100.56 29.73C100.56 29.71 100.54 29.69 100.52 29.69C98.25 29.36 96.92 27.76 96.92 25.34C96.92 22.5 99.1 20.61 102.3 20.61C103.79 20.61 104.5 20.83 105.45 20.83H108.89V22.52H106.25C107.09 23.12 107.63 24.27 107.63 25.54C107.63 28.03 105.7 30.03 102.41 30.03H101.61C99.83 30.03 98.9 30.41 98.9 31.07C98.9 31.78 99.52 31.89 101.88 31.89H104.26C107.3 31.89 108.84 32.67 108.84 34.89C108.84 37.11 106.93 38.87 102.13 38.87H101.82C97.58 38.87 96.29 37.8 96.29 36.2L96.27 36.19ZM106.8 35.19C106.8 33.99 105.82 33.68 103.82 33.68H101.71C99.18 33.68 98.31 34.59 98.31 35.64C98.31 36.6 99.27 37.26 102 37.26H102.24C105.57 37.26 106.79 36.46 106.79 35.19H106.8ZM105.62 25.39C105.62 23.52 104.44 22.06 102.29 22.06C100.14 22.06 98.94 23.35 98.94 25.39C98.94 27.17 100.12 28.52 102.29 28.52C104.46 28.52 105.62 27.17 105.62 25.39Z" fill="#121C2D"/>
<path d="M110.62 20.82H112.66V25.42C113.04 21.91 114.62 20.6 116.99 20.6C117.7 20.6 118.28 20.73 118.63 20.91V22.89C118.14 22.56 117.41 22.4 116.72 22.4C114.48 22.4 112.68 24.02 112.68 27.42V33.82H110.61V20.82H110.62Z" fill="#121C2D"/>
<path d="M120.22 18.04C120.22 17.11 120.8 16.73 121.55 16.73C122.35 16.73 122.88 17.11 122.88 18.04C122.88 18.97 122.35 19.33 121.55 19.33C120.79 19.33 120.22 18.93 120.22 18.04ZM120.53 20.82H122.6V33.82H120.53V20.82Z" fill="#121C2D"/>
<path d="M124.8 27.46V27.15C124.8 23.06 127.15 20.6 130.44 20.6C133.08 20.6 134.71 22.07 135.24 25.04V16.37H137.31V33.81H135.24V29.59C134.73 32.57 133.11 34.03 130.37 34.03C127.06 34.03 124.79 31.59 124.79 27.45L124.8 27.46ZM135.31 27.37V27.21C135.31 24.06 133.62 22.26 131.09 22.26C128.56 22.26 126.91 24.06 126.91 27.21V27.37C126.91 30.59 128.64 32.33 131.09 32.33C133.54 32.33 135.31 30.62 135.31 27.37Z" fill="#121C2D"/>
<path d="M20 4H12C10.9 4 10 4.9 10 6V12C10 13.1 10.9 14 12 14H18C19.1 14 20 14.9 20 16V22C20 23.1 20.9 24 22 24H28C29.1 24 30 23.1 30 22V5C30 4.45 29.55 4 29 4H20Z" fill="#51A9E3"/>
<path d="M10 34H18C19.1 34 20 33.1 20 32V26C20 24.9 19.1 24 18 24H12C10.9 24 10 23.1 10 22V16C10 14.9 9.1 14 8 14H2C0.9 14 0 14.9 0 16V33C0 33.55 0.45 34 1 34H10Z" fill="#51A9E3"/>
<path d="M82.07 0.369999H78.04C77.9074 0.369999 77.8 0.47745 77.8 0.609999V2.99C77.8 3.12255 77.9074 3.23 78.04 3.23H82.07C82.2025 3.23 82.31 3.12255 82.31 2.99V0.609999C82.31 0.47745 82.2025 0.369999 82.07 0.369999Z" fill="#121C2D"/>
<path d="M82.05 3.94H78.02C77.8874 3.94 77.78 4.04745 77.78 4.18V14.6C77.78 14.7325 77.8874 14.84 78.02 14.84H82.05C82.1826 14.84 82.29 14.7325 82.29 14.6V4.18C82.29 4.04745 82.1826 3.94 82.05 3.94Z" fill="#121C2D"/>
<path d="M76.75 0.369999H72.72C72.5875 0.369999 72.48 0.47745 72.48 0.609999V14.6C72.48 14.7325 72.5875 14.84 72.72 14.84H76.75C76.8826 14.84 76.99 14.7325 76.99 14.6V0.609999C76.99 0.47745 76.8826 0.369999 76.75 0.369999Z" fill="#121C2D"/>
<path d="M71.45 0.369999H67.42C67.2874 0.369999 67.18 0.47745 67.18 0.609999V2.99C67.18 3.12255 67.2874 3.23 67.42 3.23H71.45C71.5825 3.23 71.69 3.12255 71.69 2.99V0.609999C71.69 0.47745 71.5825 0.369999 71.45 0.369999Z" fill="#121C2D"/>
<path d="M71.44 3.94H63.28C63.14 3.94 63.06 4 63.02 4.16L62.09 8.65L61.14 4.16C61.12 4.02 61.02 3.94 60.88 3.94H57.07C56.93 3.94 56.83 4.02 56.81 4.16L55.86 8.69L54.97 4.16C54.93 4 54.85 3.94 54.71 3.94H48.18V0.539999C48.18 0.359999 48.06 0.28 47.86 0.34L43.95 1.61C43.81 1.65 43.73 1.77 43.73 1.91V3.4C43.73 3.82 43.51 4 43.09 4H42.24C42.1 4 42 4.1 42 4.24V7.16C42 7.3 42.1 7.4 42.24 7.4H43.67V11.07C43.67 13.63 44.6 15 47.68 15C48.87 15 49.8 14.8 50.32 14.56C50.48 14.48 50.52 14.38 50.52 14.22V11.36C50.52 11.2 50.38 11.12 50.18 11.22C49.92 11.34 49.66 11.4 49.37 11.4C48.58 11.4 48.18 11.1 48.18 10.11V7.39H50.26C50.4 7.39 50.5 7.29 50.5 7.15V4.61L53.14 14.64C53.18 14.78 53.28 14.84 53.44 14.84H57.33C57.47 14.84 57.53 14.78 57.57 14.64L58.84 10.05L60.07 14.64C60.11 14.78 60.17 14.84 60.31 14.84H64.26C64.42 14.84 64.52 14.78 64.56 14.64L67.18 4.69V14.6C67.18 14.74 67.28 14.84 67.42 14.84H71.45C71.59 14.84 71.69 14.74 71.69 14.6V4.18C71.69 4.04 71.59 3.94 71.45 3.94H71.44Z" fill="#121C2D"/>
<path d="M88.94 3.76C85.31 3.76 82.9 6 82.9 9.24V9.5C82.9 12.74 85.3 15 88.94 15C92.58 15 94.98 12.74 94.98 9.5V9.24C94.98 6 92.58 3.76 88.94 3.76ZM90.43 9.44C90.43 10.91 89.81 11.5 88.94 11.5C88.07 11.5 87.45 10.9 87.45 9.44V9.3C87.45 7.81 88.07 7.22 88.94 7.22C89.81 7.22 90.43 7.82 90.43 9.3V9.44Z" fill="#121C2D"/>
</g>
<defs>
<clipPath id="clip0_1_42">
<rect width="137" height="39" fill="white"/>
</clipPath>
</defs>
</svg>
