<svg width="600" height="132" viewBox="0 0 600 132" fill="none" xmlns="http://www.w3.org/2000/svg">
<g clip-path="url(#clip0_1_62)">
<path d="M30.1 0.300003H0.299988L42.8 96.9C43.1 97.6 44.2 97.6 44.5 96.9L58.6 63.6L30.1 0.300003ZM120.9 0.300003C120.9 0.300003 75.2 104.9 69.1 114.6C62 125.8 57.3 130.1 48.5 131.5C48.4 131.5 48.4 131.6 48.4 131.7C48.4 131.8 48.5 131.9 48.6 131.9H75.9C87.7 131.9 96.3 122 101 113.3C106.4 103.4 151.3 0.399994 151.3 0.399994H120.9V0.300003ZM240.3 84.2C240.2 84.3 240 84.3 240 84.2L217.3 34.6H204.6C204.6 34.6 228 87.2 230.3 91.2C232.6 95 235.3 98.2 240.2 98.2C245.1 98.2 247.8 95 250.1 91.2C252.4 87.3 275.8 34.6 275.8 34.6H263L240.3 84.2ZM309.4 88.5C297.1 88.5 289 80.5 289 66C289 51.5 297.1 43.5 309.4 43.5C321.7 43.5 329.8 51.5 329.8 66C329.8 80.5 321.7 88.5 309.4 88.5ZM309.4 33.1C290.1 33.1 277.7 45.6 277.7 66C277.7 86.4 290.1 98.9 309.4 98.9C328.6 98.9 341.1 86.4 341.1 66C341.1 45.6 328.7 33.1 309.4 33.1ZM406.3 34.6V97.5H393.2L362.8 51.5V97.5H351.7V34.6H364.8L395.2 80.9V34.6H406.3ZM436.1 71.7L447.1 46C447.2 45.9 447.4 45.9 447.4 46L458.4 71.7H436.1ZM447.2 33.9C442.6 33.9 439.8 37.4 438 40.9C436.1 44.5 413.5 97.5 413.5 97.5H425.1L431.6 82.3H462.9L469.4 97.5H481C481 97.5 458.4 44.4 456.5 40.9C454.6 37.3 451.8 33.9 447.2 33.9ZM512.5 73.2H532.4C532.3 83 523.2 88.5 513.5 88.5C501.4 88.5 493.4 80.5 493.4 66C493.4 50.4 500.7 43.4 514.1 43.4C522.5 43.4 529.4 46.8 530.9 54.7H542.4C540.4 40.9 527.6 33.1 513.4 33.1C494.4 33.1 482.2 45.6 482.2 66C482.2 86.4 494.4 98.6 513.4 98.6C521.4 98.6 529.5 94.3 532.3 89.8V97.4H543V78V63.5H512.4V73.2H512.5ZM600.3 45.1V34.6H555.1V97.5H600.3V87H566.2V70.5H597.6V60H566.2V45.2H600.3V45.1Z" fill="black"/>
</g>
<defs>
<clipPath id="clip0_1_62">
<rect width="600" height="132" fill="white"/>
</clipPath>
</defs>
</svg>
