<svg width="377" height="55" viewBox="0 0 377 55" fill="none" xmlns="http://www.w3.org/2000/svg">
<g clip-path="url(#clip0_1_2)">
<path d="M145.221 45.2117C144.718 46.0291 144.089 46.8466 143.46 47.6012C142.454 48.8589 141.259 49.9908 139.939 50.9341C138.241 52.1288 136.354 53.135 134.405 53.8896C131.89 54.7699 129.248 55.2101 126.607 55.1472C123.149 55.2101 119.69 54.4555 116.546 53.0721C113.591 51.7515 110.887 49.8022 108.748 47.3497C106.548 44.8344 104.85 41.8788 103.718 38.6718C102.523 35.2132 101.957 31.5031 101.957 27.7929C101.894 24.1457 102.523 20.5613 103.718 17.1028C104.85 13.8957 106.485 11.0031 108.748 8.42485C110.887 5.9724 113.591 3.96012 116.546 2.57668C119.69 1.13036 123.149 0.43865 126.607 0.43865C129.248 0.375767 131.89 0.815951 134.405 1.69632C136.417 2.38804 138.241 3.39418 139.939 4.65185C141.259 5.5951 142.454 6.72699 143.46 7.98466C144.089 8.73926 144.655 9.55674 145.221 10.4371L142.454 12.3865C142.14 11.9463 141.637 11.3175 140.945 10.3742C140.127 9.30523 139.121 8.36196 138.052 7.60736C136.606 6.60122 135.034 5.72085 133.399 5.09202C131.261 4.33742 128.997 3.96013 126.733 4.02301C123.715 3.96013 120.696 4.58896 117.992 5.84663C115.477 7.04141 113.213 8.73927 111.452 10.8773C109.629 13.0782 108.245 15.6564 107.365 18.4233C106.422 21.4417 105.919 24.5859 105.982 27.7301C105.982 30.9371 106.422 34.0184 107.428 37.0368C108.308 39.8037 109.755 42.3819 111.578 44.6457C113.339 46.7838 115.603 48.5445 118.181 49.7393C120.948 50.9969 124.029 51.6258 127.048 51.5629C129.186 51.6258 131.324 51.2485 133.336 50.4939C134.971 49.865 136.543 49.0476 137.926 47.9785C139.058 47.161 140.064 46.2178 140.882 45.2117C141.637 44.3313 142.14 43.6396 142.454 43.1994L145.221 45.2117ZM154.402 53.8896H157.86V1.75921H154.402V53.8896ZM168.551 17.9831H172.009V53.9525H168.551V17.9831ZM167.859 5.28068H172.701V10.3742H167.859V5.28068ZM212.506 48.6074C210.934 50.4939 208.922 52.066 206.721 53.0721C204.206 54.2669 201.376 54.8957 198.609 54.8328C193.767 54.8957 189.176 52.9463 185.906 49.362C184.271 47.6012 183.014 45.589 182.259 43.3252C181.379 40.9356 180.939 38.4203 180.939 35.842C180.939 33.2638 181.379 30.7485 182.259 28.3589C183.077 26.158 184.334 24.0828 185.969 22.3221C191.314 16.8512 199.552 15.342 206.532 18.5491C208.733 19.681 210.62 21.2531 212.066 23.2025L209.488 25.2147C208.356 23.6426 206.847 22.385 205.086 21.5046C203.074 20.5613 200.873 20.0583 198.609 20.1212C196.66 20.1212 194.71 20.4985 192.949 21.3788C191.252 22.1963 189.742 23.3282 188.548 24.7745C187.29 26.2209 186.284 27.9187 185.655 29.7423C184.963 31.6917 184.586 33.7669 184.586 35.7791C184.586 37.8543 184.963 39.9295 185.655 41.816C186.347 43.6396 187.29 45.3374 188.61 46.7838C189.868 48.1672 191.377 49.2991 193.075 50.1166C194.773 50.934 196.66 51.3742 198.609 51.3742C200.936 51.4371 203.262 50.9341 205.4 49.9908C207.224 49.1733 208.859 47.8528 210.117 46.2178L212.506 48.6074ZM220.555 1.82209H224.014V35.9678L242.061 17.9831H246.589L233.132 31.3144L249.293 53.8896H245.143L230.679 33.8298L224.014 40.3696V53.8896H220.555V1.82209ZM277.905 35.5905C276.584 35.2761 275.264 35.0874 273.88 34.8988C271.805 34.7101 269.793 34.5844 267.718 34.6472C265.58 34.5844 263.505 34.8988 261.555 35.6534C260.235 36.1564 259.04 36.9739 258.097 38.043C257.342 38.9233 256.776 39.9923 256.587 41.1871C256.399 42.1933 256.273 43.1994 256.273 44.2055C256.084 46.4064 257.028 48.5445 258.851 49.9279C260.801 51.1856 263.064 51.8144 265.391 51.7515C267.089 51.7515 268.724 51.4371 270.296 50.8083C271.742 50.2423 273.126 49.362 274.321 48.2929C275.452 47.2868 276.333 46.092 277.025 44.7086C277.653 43.4509 278.031 42.0675 278.031 40.684V35.5905H277.905ZM278.219 53.8896C278.156 53.3865 278.156 52.8206 278.156 52.3175C278.094 51.8144 278.094 51.1856 278.094 50.431V47.8528C277.276 49.1104 276.207 50.2423 275.075 51.2485C274.006 52.1288 272.874 52.8206 271.617 53.3865C270.485 53.8896 269.29 54.2669 268.095 54.5184C267.026 54.7071 265.957 54.8328 264.888 54.8328C263.379 54.8328 261.933 54.7071 260.423 54.3927C258.977 54.0782 257.656 53.5123 256.462 52.6948C255.267 51.8144 254.261 50.7454 253.569 49.4248C252.752 47.7899 252.374 45.9663 252.437 44.1426C252.437 42.4448 252.689 40.8098 253.255 39.2377C253.821 37.7285 254.764 36.3451 255.959 35.2761C257.342 34.0813 258.977 33.138 260.675 32.635C262.939 31.9433 265.328 31.6288 267.718 31.6917C269.856 31.6917 271.742 31.7546 273.44 31.9433C275.138 32.069 276.584 32.2577 277.716 32.5092V30.4969C277.779 28.862 277.528 27.1641 277.025 25.592C276.647 24.3972 275.893 23.3282 274.949 22.4479C274.006 21.6304 272.811 21.0644 271.554 20.8129C270.044 20.4985 268.535 20.3098 266.963 20.3098C264.574 20.1841 262.184 20.6242 260.046 21.6304C258.663 22.3221 257.342 23.1396 256.084 24.0828L254.261 21.6304C255.644 20.4356 257.279 19.4294 258.977 18.6748C261.492 17.5429 264.196 17.0399 266.9 17.1028C270.673 16.8512 274.383 17.9203 277.402 20.0583C279.854 22.0077 281.112 25.2776 281.112 29.8681V49.362C281.112 50.3052 281.112 51.0598 281.175 51.7515C281.238 52.569 281.238 53.3236 281.301 53.9525L278.219 53.8896ZM294.946 21.2531H287.903V17.9831H294.946V6.09816H298.405V17.9831H310.038V21.2531H298.405V42.0675C298.342 43.7653 298.531 45.4632 298.845 47.1611C299.034 48.2301 299.537 49.2362 300.166 50.0537C300.669 50.6825 301.423 51.1227 302.178 51.3742C302.995 51.5629 303.876 51.6887 304.693 51.6887C305.825 51.6887 306.957 51.5 307.963 50.9969C309.032 50.3681 309.975 49.5506 310.73 48.6074L312.868 50.7454C311.925 52.0031 310.73 53.0721 309.41 53.8896C307.837 54.6442 306.077 55.0215 304.316 54.9586C302.995 54.9586 301.738 54.7699 300.48 54.4555C299.348 54.1411 298.279 53.5123 297.462 52.569C296.581 51.5 295.89 50.2423 295.575 48.9218C295.072 47.0353 294.821 45.023 294.883 43.0107V21.2531H294.946ZM347.265 33.8298C347.077 30.0568 345.63 26.5353 343.115 23.7684C340.725 21.4417 337.456 20.1841 334.186 20.3098C332.425 20.3098 330.664 20.6242 329.029 21.3788C327.52 22.0706 326.136 23.0138 325.005 24.2715C323.873 25.5291 322.929 26.9755 322.301 28.5476C321.609 30.2454 321.169 32.0061 321.106 33.8298H347.265ZM349.466 48.5445C347.831 50.6196 345.693 52.1917 343.241 53.1978C340.663 54.3298 337.959 54.8957 335.192 54.8957C332.739 54.8957 330.287 54.4555 327.96 53.5123C325.822 52.6319 323.873 51.3114 322.301 49.6135C320.666 47.9157 319.408 45.8405 318.591 43.6396C316.83 38.7976 316.83 33.4525 318.528 28.6104C319.282 26.4095 320.477 24.3972 321.986 22.5736C325.067 18.9893 329.532 16.977 334.248 17.0399C336.575 17.0399 338.839 17.4801 340.914 18.3604C342.989 19.1779 344.813 20.4985 346.259 22.1334C347.831 23.9571 349.026 26.0322 349.781 28.3589C350.661 31.1258 351.101 34.0184 351.038 36.911H321.043C321.106 38.8604 321.483 40.8098 322.175 42.6334C322.867 44.3942 323.81 45.9663 325.068 47.3497C326.325 48.6702 327.771 49.7393 329.469 50.4939C331.23 51.2485 333.179 51.6258 335.129 51.6258C337.393 51.6258 339.656 51.1227 341.794 50.2423C342.863 49.8022 343.807 49.2362 344.75 48.6074C345.63 48.0414 346.385 47.2868 347.014 46.4693L349.466 48.5445ZM359.779 53.8896H363.238V1.75921H359.779V53.8896ZM373.802 53.8896H377.261V1.75921H373.802V53.8896Z" fill="#233659"/>
<path d="M36.8098 4.58896C30.8359 1.38191 23.8558 0.753066 17.4417 2.8911C11.0276 5.02914 5.7454 9.68251 2.85276 15.7822C-3.62424 28.5475 1.09202 44.2055 13.5429 51.2485C19.3911 54.4555 26.3083 55.0844 32.6595 53.0092H32.7224C34.2945 52.569 35.7408 51.8773 37.0613 50.9341C34.7347 49.1104 32.7853 46.8466 31.4018 44.2055V44.1426C26.8742 46.092 21.7178 45.8405 17.3788 43.4509C9.07822 38.7347 5.93405 28.296 10.273 19.7439C12.1595 15.6565 15.7439 12.5752 20.0199 11.1288C24.296 9.68252 28.9494 10.1227 32.9739 12.2607C37.8159 14.9647 41.0859 19.7439 41.7776 25.2776L50.2669 29.8681C51.0844 19.6181 45.865 9.68252 36.8098 4.58896Z" fill="#2CC4EC"/>
<path d="M45.865 51.3742C51.839 54.5184 58.8819 55.0843 65.296 52.9463C71.7101 50.8083 76.9294 46.092 79.8221 39.9923C86.2362 27.1641 81.4571 11.569 69.0061 4.52607C63.158 1.31901 56.2408 0.753071 49.8896 2.82822H49.8267C48.2546 3.26841 46.8083 3.96012 45.4877 4.90337C47.8773 6.66411 49.7638 8.9908 51.1472 11.6319V11.6948C55.6748 9.74539 60.8313 9.99692 65.1702 12.3236C73.5337 17.0399 76.6779 27.4156 72.4018 35.9678C70.5153 40.0552 66.9939 43.1994 62.7178 44.6457C58.4417 46.092 53.7883 45.7147 49.7638 43.5767C44.9218 40.9356 41.589 36.0936 40.8972 30.6227L32.408 26.0322C31.4647 36.408 36.7469 46.2807 45.865 51.3742Z" fill="#8CC63F"/>
</g>
<defs>
<clipPath id="clip0_1_2">
<rect width="377" height="55" fill="white"/>
</clipPath>
</defs>
</svg>
