<svg width="804" height="249" viewBox="0 0 804 249" fill="none" xmlns="http://www.w3.org/2000/svg">
<g clip-path="url(#clip0_1_13)">
<path d="M195.17 195.93C181.56 209.53 154.95 217.63 123.96 217.63C92.97 217.63 66.33 209.53 52.76 195.93C39.19 182.33 31 155.71 31 124.72C31 93.73 39.15 67.13 52.75 53.52C66.35 39.91 93 31.77 124 31.77C155 31.77 181.6 39.91 195.21 53.52C208.82 67.13 216.91 93.74 216.91 124.72C216.91 155.7 208.73 182.32 195.17 195.93ZM248.33 124.7C248.33 100.098 241.035 76.0485 227.367 55.5926C213.698 35.1368 194.271 19.1934 171.542 9.77863C148.813 0.363849 123.802 -2.09949 99.6727 2.70013C75.5434 7.49974 53.3792 19.3467 35.983 36.743C18.5867 54.1392 6.73972 76.3034 1.9401 100.433C-2.85951 124.562 -0.396176 149.573 9.01861 172.302C18.4334 195.031 34.3768 214.458 54.8326 228.126C75.2884 241.795 99.338 249.09 123.94 249.09C156.93 249.09 188.569 235.985 211.897 212.657C235.225 189.329 248.33 157.69 248.33 124.7Z" fill="#FF5A00"/>
<path d="M147.94 107.31V141.31C147.948 143.176 147.216 144.97 145.903 146.297C144.591 147.624 142.806 148.377 140.94 148.39H106.84C105.91 148.397 104.988 148.218 104.127 147.864C103.267 147.51 102.486 146.989 101.829 146.329C101.173 145.67 100.655 144.887 100.304 144.025C99.9542 143.163 99.7794 142.24 99.79 141.31V107.31C99.7861 106.381 99.9654 105.461 100.318 104.601C100.67 103.742 101.189 102.961 101.844 102.302C102.499 101.643 103.277 101.12 104.134 100.763C104.992 100.406 105.911 100.221 106.84 100.22H140.9C141.828 100.223 142.746 100.408 143.603 100.766C144.459 101.124 145.236 101.647 145.89 102.305C146.544 102.964 147.061 103.745 147.413 104.604C147.765 105.462 147.944 106.382 147.94 107.31Z" fill="#FF5A00"/>
<path d="M182.17 66C172.53 56.36 149.64 50.12 123.85 50.12C98.06 50.12 75.17 56.36 65.53 66C55.89 75.64 49.66 98.56 49.66 124.36C49.66 150.16 55.85 173.08 65.53 182.73C75.21 192.38 98.06 198.6 123.85 198.6C149.64 198.6 172.53 192.36 182.17 182.73C191.81 173.1 198.05 150.16 198.05 124.36C198.05 98.56 191.86 75.59 182.17 66ZM159.65 159.92C157.65 161.92 151.5 168.06 123.65 168.06C95.8 168.06 89.65 161.95 87.65 159.92C85.65 157.89 79.51 151.78 79.51 123.92C79.51 96.06 85.62 89.92 87.65 87.92C89.68 85.92 95.75 79.82 123.65 79.82C151.55 79.82 157.59 85.89 159.65 87.92C161.71 89.95 167.74 96.06 167.74 123.92C167.74 151.78 161.64 157.86 159.65 159.88V159.92Z" fill="#FF5A00"/>
<path d="M395.82 86.47C385.493 86.47 377.16 89.86 370.82 96.64L367.43 88.32H345.88V164.62H373V123.77C373 114.68 378.7 108.66 387.18 108.66C388.779 108.631 390.368 108.927 391.849 109.531C393.33 110.135 394.673 111.034 395.795 112.174C396.918 113.313 397.797 114.669 398.379 116.159C398.961 117.649 399.233 119.241 399.18 120.84V164.62H426.31V116.37C426.31 107.59 423.54 100.5 417.83 94.95C412.16 89.24 404.91 86.47 395.82 86.47Z" fill="#373A3B"/>
<path d="M331.24 53.06H304.11V80.19H331.24V53.06Z" fill="#373A3B"/>
<path d="M331.24 88.32H304.11V164.62H331.24V88.32Z" fill="#373A3B"/>
<path d="M794.44 97.71C787.8 90.17 779.33 86.49 769.01 86.49C759.73 86.49 752.2 89.4 746.33 95.4L742.92 88.31H721.38V196.69H748.47V159.23C754.261 163.963 761.521 166.527 769 166.48C779.32 166.48 787.79 162.75 794.43 155.38C801.03 147.81 804.43 138.25 804.43 126.54C804.45 114.68 801 105.12 794.44 97.71ZM761.76 145.17C753.58 145.17 748.03 139.02 748.03 130.55V122.55C748.03 113.93 753.58 107.77 761.76 107.77C770.55 107.77 776.86 115.47 776.86 126.56C776.86 137.48 770.55 145.17 761.76 145.17Z" fill="#373A3B"/>
<path d="M693.16 52.71C684.37 52.71 677.74 59.18 677.74 68.28C677.695 70.3169 678.063 72.3418 678.822 74.2324C679.581 76.1231 680.715 77.8404 682.157 79.2805C683.598 80.7207 685.316 81.8539 687.207 82.6118C689.098 83.3697 691.123 83.7364 693.16 83.69C702.4 83.69 708.72 77.06 708.72 68.28C708.72 59.18 702.4 52.71 693.16 52.71Z" fill="#373A3B"/>
<path d="M706.72 88.32H679.59V164.62H706.72V88.32Z" fill="#373A3B"/>
<path d="M566.46 97.71C558.46 90.17 547.95 86.49 535.19 86.49C522.43 86.49 512.06 90.17 503.88 97.71C495.7 105.25 491.69 114.84 491.69 126.54C491.69 138.24 495.69 147.81 503.88 155.38C512.06 162.75 522.39 166.48 535.19 166.48C547.99 166.48 558.44 162.75 566.46 155.38C574.64 147.81 578.65 138.25 578.65 126.54C578.65 114.68 574.64 105.12 566.46 97.71ZM535.19 145.5C525.91 145.5 519.43 137.64 519.43 126.5C519.43 115.24 525.91 107.39 535.19 107.39C544.47 107.39 551.07 115.24 551.07 126.5C551.07 137.64 544.42 145.5 535.19 145.5Z" fill="#373A3B"/>
<path d="M480.59 75.83C483.594 75.886 486.588 76.1971 489.54 76.76L492.93 56.76C486.733 55.1015 480.345 54.2709 473.93 54.29C465.45 54.29 458.513 56.7567 453.12 61.69C447.88 66.62 445.26 73.1 445.26 81.27V88.36H432.5V108.86H445.3V164.66H472.43V108.86H488.15V88.36H472.43V84C472.43 78.91 475.66 75.83 480.59 75.83Z" fill="#373A3B"/>
<path d="M659.69 97.71C653.09 90.17 644.58 86.49 634.26 86.49C626.787 86.3803 619.519 88.9364 613.76 93.7V56.11H586.63V164.62H608.21L611.62 157.53C617.45 163.53 625.02 166.53 634.26 166.53C644.58 166.53 653.09 162.8 659.69 155.43C666.33 147.86 669.69 138.3 669.69 126.59C669.74 114.68 666.33 105.12 659.69 97.71ZM627.05 145.17C618.87 145.17 613.32 139.02 613.32 130.55V122.55C613.32 113.93 618.87 107.77 627.05 107.77C635.8 107.77 642.11 115.47 642.11 126.56C642.11 137.48 635.8 145.17 627.05 145.17Z" fill="#373A3B"/>
</g>
<defs>
<clipPath id="clip0_1_13">
<rect width="804" height="249" fill="white"/>
</clipPath>
</defs>
</svg>
