<svg width="800" height="222" viewBox="0 0 800 222" fill="none" xmlns="http://www.w3.org/2000/svg">
<g clip-path="url(#clip0_1_6)">
<path d="M87.6811 76.1421C69.5802 76.1421 54.3037 90.8552 54.3037 109.526C54.223 118.403 57.7137 126.94 63.9907 133.217C70.2678 139.494 78.8044 142.985 87.6811 142.904C105.782 142.904 121.052 128.191 121.052 109.526C121.052 90.8552 105.782 76.1421 87.6811 76.1421ZM35.6393 108.956C35.6393 80.6708 58.8324 57.4778 87.1176 57.4778C115.396 57.4778 138.589 80.6708 138.589 108.956C138.589 110.653 138.589 112.921 138.025 114.619C137.455 119.704 141.42 123.662 146.512 123.662C154.999 123.662 156.126 112.921 156.126 108.956C156.126 71.0499 125.01 39.9334 87.1176 39.9334C49.2115 39.9334 18.1089 71.0499 18.1089 108.956C18.1089 146.869 49.2115 177.979 87.1176 177.979C107.479 177.979 125.58 169.492 138.025 155.349L152.161 167.231C136.892 185.339 113.135 196.657 87.6741 196.657C64.3936 196.729 42.0463 187.511 25.5877 171.046C9.12905 154.581 -0.0805735 132.23 0.000531181 108.949C0.000531181 60.8656 39.0272 21.2691 87.6811 21.2691C135.758 21.2691 174.791 60.8726 174.791 108.963C174.791 128.198 165.74 144.045 147.076 144.045C139.152 144.045 134.067 140.08 131.236 136.121C122.185 150.834 105.775 160.448 87.1106 160.448C73.4436 160.495 60.3229 155.086 50.6588 145.422C40.9946 135.758 35.586 122.637 35.6324 108.97L35.6393 108.956ZM87.6741 93.6795C96.1611 93.6795 102.951 100.469 102.951 108.956C102.951 117.443 96.1611 124.233 87.6811 124.233C83.6244 124.249 79.729 122.645 76.8605 119.777C73.9919 116.908 72.3878 113.013 72.4044 108.956C72.4044 100.469 79.1941 93.6795 87.6811 93.6795H87.6741Z" fill="#C02428"/>
<path d="M561.73 74.4726C572.373 74.4726 582.508 78.512 589.772 86.1222L591.024 87.5021V76.7404H612.429V168.483L612.392 172.94C612.116 188.511 610.223 195.861 604.547 204.17C596.659 216.066 582.572 222.292 566.801 222.292C539.791 222.292 522.494 205.489 521.755 178.252L521.73 176.42H542.572L542.818 179.556C543.331 185.332 544.021 188.312 545.953 191.711C549.897 198.507 558.349 202.473 566.801 202.473C582.079 202.473 589.96 193.437 590.437 174.847L590.46 173.019V159.996C582.008 169.624 572.993 173.589 561.167 173.589C536.38 173.589 517.786 153.193 517.786 124.88C517.786 95.4256 536.38 74.4726 561.73 74.4726ZM646.794 76.7404V130.542C646.794 146.403 652.429 153.763 664.826 153.763C677.332 153.763 683.016 146.902 683.393 132.153L683.413 130.542V76.7404H704.826V131.113C704.826 145.833 702.572 153.763 695.247 161.693C687.365 169.624 677.222 173.589 664.826 173.589C652.993 173.589 642.293 169.624 634.968 161.693C628.545 154.16 625.681 146.626 625.41 133.27L625.389 131.113V76.7404H646.794ZM375.26 73.9091C386.464 73.9091 394.134 77.4679 403.049 86.0287L404.547 87.5021V76.7404H425.96V170.187H404.547V160.566C394.412 169.624 387.087 173.019 375.817 173.019C349.904 173.019 331.309 152.066 331.309 122.612C331.309 94.8621 349.904 73.9091 375.26 73.9091ZM292.443 73.9091C312.736 73.9091 323.42 86.2553 323.969 110.434L323.991 112.42V171.885H302.579V119.78C302.579 101.659 298.634 94.8621 288.492 94.8621C276.509 94.8621 271.366 102.817 271.047 121.299L271.031 123.182V171.321H249.626V119.217C249.626 102.229 245.118 94.2986 235.539 94.2986C223.549 94.2986 218.413 102.253 218.094 120.735L218.078 122.619V170.758H196.666V76.7404H218.078V85.2343C225.96 76.1699 231.031 73.9091 240.047 73.9091C250.189 73.9091 259.198 78.4378 264.833 87.5021C271.594 79.0013 281.173 73.9091 292.443 73.9091ZM464.833 76.7404V170.758H443.42V76.7404H464.833ZM765.667 73.9091C788.186 73.9091 798.926 86.2887 799.449 111.054L799.469 112.984V170.758H778.057V118.083C778.057 99.9612 774.12 93.7282 760.596 93.7282C746.371 93.7282 741.179 101.744 740.894 123.489L740.881 170.758H719.469V76.7404H740.318V85.2343C748.763 76.7404 755.525 73.9091 765.667 73.9091ZM505.953 0.28125V170.187H484.547V0.28125H505.953ZM379.198 93.1578C364.554 93.1647 353.285 106.187 353.285 123.182C353.285 141.304 363.991 153.763 379.198 153.763C394.975 153.763 405.674 141.304 405.674 123.182C405.674 106.156 395.614 93.918 380.618 93.1919L379.198 93.1647V93.1578ZM565.674 93.1578C549.897 93.1647 539.754 105.624 539.754 123.746C539.754 141.867 549.897 153.763 565.674 153.763C580.881 153.763 591.587 141.304 591.587 123.182C591.587 106.156 582.05 93.918 567.092 93.1919L565.674 93.1578ZM454.12 24.0656C457.883 24.0373 461.493 25.5219 464.143 28.185C466.793 30.8481 468.26 34.4655 468.213 38.2221C468.262 41.9799 466.796 45.5992 464.146 48.2638C461.496 50.9284 457.885 52.414 454.127 52.3856C446.238 52.3856 440.04 46.1526 440.04 38.2221C439.993 34.4667 441.459 30.8504 444.107 28.1875C446.461 25.8205 449.574 24.3838 452.874 24.1123L454.127 24.0656H454.12Z" fill="black"/>
</g>
<defs>
<clipPath id="clip0_1_6">
<rect width="800" height="222" fill="white"/>
</clipPath>
</defs>
</svg>
