<svg width="800" height="241" viewBox="0 0 800 241" fill="none" xmlns="http://www.w3.org/2000/svg">
<g clip-path="url(#clip0_1_10)">
<path d="M120.337 -0.09375C186.763 -0.09375 240.674 53.8172 240.674 120.243C240.674 186.669 186.763 240.58 120.337 240.58C53.9109 240.58 0 186.669 0 120.243C0 53.8172 53.9109 -0.09375 120.337 -0.09375ZM120.337 31.6752C71.2395 31.6752 31.769 71.1457 31.769 120.243C31.769 169.341 71.2395 208.811 120.337 208.811C169.434 208.811 208.905 169.341 208.905 120.243C208.905 71.1457 169.434 31.6752 120.337 31.6752ZM738.869 81.254C774.489 81.254 800 107.247 800 138.053V138.534C800 169.341 774.489 195.815 738.387 195.815C702.768 195.815 677.256 169.822 677.256 139.016V138.534C677.256 107.728 702.768 81.254 738.869 81.254ZM324.428 47.5597C325.872 47.0783 327.316 48.5224 327.316 49.4851V84.1421H391.336C392.78 84.1421 393.742 85.1048 394.224 86.0675L399.519 105.803L404.332 125.538L404.813 126.501L405.295 124.575L417.329 84.6235C417.81 83.6608 419.254 82.6981 420.217 82.6981H451.986C453.43 82.6981 454.392 83.6608 454.874 84.6235L467.389 127.463L467.87 125.538L478.46 85.5862C478.941 84.6235 480.385 83.6608 481.348 83.6608H563.177C564.14 83.6608 565.102 84.6235 565.102 86.0675V191.001C565.102 191.964 564.14 192.927 563.177 192.927H522.262C521.3 192.927 520.337 191.964 520.337 191.001V89.9183L489.531 191.001C489.049 191.964 487.605 192.927 486.643 192.927H452.948C451.504 192.927 450.542 191.964 450.06 191.001L443.321 169.822L436.101 146.717L421.661 191.483C421.179 192.445 419.735 193.408 418.773 193.408H385.078C383.634 193.408 382.671 192.445 382.19 191.483L351.865 90.881V116.874C351.865 117.836 350.903 118.799 349.94 118.799H326.835V146.236C326.835 154.419 330.686 157.307 337.906 157.307C341.757 157.307 345.126 156.826 349.458 154.9C350.421 154.9 351.865 155.382 351.865 156.826V188.595C344.645 192.445 334.055 194.852 322.984 194.852C296.51 194.852 282.07 182.337 282.07 155.863V118.318H271.48C270.517 118.318 269.555 117.355 269.555 116.392V85.5862C269.555 84.6235 270.517 83.6608 271.48 83.6608H282.07V62.0001C282.07 61.0374 282.551 60.5561 283.995 60.0747L324.428 47.5597ZM617.088 47.0783C618.051 47.0783 619.013 48.041 619.013 49.0037V191.001C619.013 191.964 618.051 192.927 617.088 192.927H576.173C575.211 192.927 574.248 191.964 574.248 191.001V49.0037C574.248 48.041 575.211 47.0783 576.173 47.0783H617.088ZM670.999 83.6608C671.962 83.6608 672.924 84.6235 672.924 86.0675V191.001C672.924 191.964 671.962 192.927 670.999 192.927H630.084C629.122 192.927 628.159 191.964 628.159 191.001V85.5862C628.159 84.6235 629.122 83.6608 630.084 83.6608H670.999ZM150.181 125.057C164.004 125.057 175.211 136.263 175.211 150.087C175.211 163.91 164.004 175.117 150.181 175.117C136.357 175.117 125.15 163.91 125.15 150.087C125.15 136.263 136.357 125.057 150.181 125.057ZM90.4934 125.057C104.317 125.057 115.523 136.263 115.523 150.087C115.523 163.91 104.317 175.117 90.4934 175.117C76.6696 175.117 65.4633 163.91 65.4633 150.087C65.4633 136.263 76.6696 125.057 90.4934 125.057ZM738.387 118.799C728.279 118.799 721.059 126.982 721.059 137.572V138.053C721.059 148.643 728.761 157.307 738.869 157.307C748.977 157.307 756.197 149.124 756.197 138.534C756.197 127.463 748.496 118.799 738.387 118.799ZM150.181 65.3695C164.004 65.3695 175.211 76.5759 175.211 90.3996C175.211 104.223 164.004 115.43 150.181 115.43C136.357 115.43 125.15 104.223 125.15 90.3996C125.15 76.5759 136.357 65.3695 150.181 65.3695ZM90.4934 65.3695C104.317 65.3695 115.523 76.5759 115.523 90.3996C115.523 104.223 104.317 115.43 90.4934 115.43C76.6696 115.43 65.4633 104.223 65.4633 90.3996C65.4633 76.5759 76.6696 65.3695 90.4934 65.3695ZM563.658 47.0783C565.102 47.0783 566.065 48.041 565.584 49.0037V73.5525C565.584 74.5152 564.621 75.4779 563.658 75.4779H521.3C520.337 75.4779 519.374 74.5152 519.374 73.5525V49.0037C519.374 48.041 520.337 47.0783 521.3 47.0783H563.658ZM671.48 47.0783C672.924 47.0783 673.887 48.041 673.406 49.0037V73.5525C673.406 74.5152 672.443 75.4779 671.48 75.4779H629.122C628.159 75.4779 627.196 74.5152 627.196 73.5525V49.0037C627.196 48.041 628.159 47.0783 629.122 47.0783H671.48Z" fill="#F12E45"/>
</g>
<defs>
<clipPath id="clip0_1_10">
<rect width="800" height="241" fill="white"/>
</clipPath>
</defs>
</svg>
