<svg width="24" height="25" viewBox="0 0 24 25" fill="none" xmlns="http://www.w3.org/2000/svg">
<g id="bank-fill">
<path id="Vector" d="M2 20.7622H22V22.7622H2V20.7622ZM4 12.7622H6V19.7622H4V12.7622ZM9 12.7622H11V19.7622H9V12.7622ZM13 12.7622H15V19.7622H13V12.7622ZM18 12.7622H20V19.7622H18V12.7622ZM2 7.76221L12 2.76221L22 7.76221V11.7622H2V7.76221ZM12 8.76221C12.5523 8.76221 13 8.31449 13 7.76221C13 7.20993 12.5523 6.76221 12 6.76221C11.4477 6.76221 11 7.20993 11 7.76221C11 8.31449 11.4477 8.76221 12 8.76221Z" fill="#5692D9"/>
</g>
</svg>
