<svg width="41" height="23" viewBox="0 0 41 23" fill="none" xmlns="http://www.w3.org/2000/svg">
<g id="Group 1000002462">
<path id="Fill 7" fill-rule="evenodd" clip-rule="evenodd" d="M17.4096 11.1272L17.648 9.85944L17.117 9.84907H14.5811L16.3434 0.493422C16.3489 0.465092 16.3667 0.438793 16.3926 0.420085C16.4186 0.401376 16.4518 0.391113 16.4866 0.391113H20.7625C22.1821 0.391113 23.1618 0.638386 23.6732 1.12652C23.913 1.35551 24.0657 1.59487 24.1396 1.85818C24.2171 2.13453 24.2184 2.46466 24.1428 2.86737L24.1373 2.89666V3.15473L24.3771 3.26848C24.579 3.35818 24.7395 3.46081 24.8626 3.57829C25.0677 3.77415 25.2003 4.02302 25.2564 4.31798C25.3144 4.62137 25.2952 4.9825 25.2003 5.39131C25.0909 5.86148 24.914 6.27104 24.6751 6.60608C24.4555 6.91482 24.1756 7.17097 23.8432 7.36939C23.5259 7.55797 23.149 7.70112 22.7228 7.79273C22.3097 7.88275 21.8388 7.92818 21.3223 7.92818H20.9895C20.7516 7.92818 20.5205 7.99992 20.3391 8.12852C20.1571 8.2598 20.0368 8.43919 19.9999 8.63537L19.9748 8.74954L19.5535 10.9842L19.5345 11.0662C19.5294 11.0922 19.5207 11.1051 19.5079 11.1139C19.4966 11.1219 19.4802 11.1272 19.4643 11.1272H17.4096Z" fill="#28356A"/>
<path id="Fill 8" fill-rule="evenodd" clip-rule="evenodd" d="M24.6045 2.92627C24.5919 2.99458 24.5772 3.06439 24.5609 3.13613C23.997 5.56011 22.0677 6.3975 19.6039 6.3975H18.3493C18.048 6.3975 17.794 6.58063 17.7471 6.82951L16.9229 11.2068C16.8924 11.3702 17.0428 11.5174 17.2397 11.5174H19.4648C19.7282 11.5174 19.9521 11.3572 19.9936 11.1396L20.0154 11.045L20.4343 8.81913L20.4613 8.69704C20.5023 8.47874 20.7266 8.31838 20.99 8.31838H21.3228C23.4786 8.31838 25.1663 7.58565 25.6595 5.46507C25.8655 4.57925 25.7589 3.83957 25.2136 3.31936C25.0486 3.16253 24.844 3.03232 24.6045 2.92627Z" fill="#298FC2"/>
<path id="Fill 9" fill-rule="evenodd" clip-rule="evenodd" d="M24.0137 2.72902C23.9275 2.70796 23.8387 2.68893 23.7475 2.67171C23.6558 2.65493 23.562 2.64007 23.4653 2.62703C23.127 2.58127 22.7564 2.55957 22.3594 2.55957H19.0079C18.9253 2.55957 18.8469 2.57518 18.7768 2.6034C18.6222 2.66562 18.5074 2.78813 18.4795 2.93812L17.7665 6.71895L17.7461 6.82917C17.793 6.5803 18.0469 6.39717 18.3483 6.39717H19.6028C22.0667 6.39717 23.996 5.55935 24.5598 3.13579C24.5767 3.06406 24.5909 2.99425 24.6035 2.92594C24.4609 2.86254 24.3064 2.80834 24.14 2.76216C24.0989 2.75072 24.0565 2.73971 24.0137 2.72902Z" fill="#22284F"/>
<path id="Fill 11" fill-rule="evenodd" clip-rule="evenodd" d="M18.4803 2.93841C18.5081 2.78842 18.6229 2.66591 18.7776 2.60412C18.8482 2.57579 18.9261 2.56018 19.0087 2.56018H22.3601C22.7571 2.56018 23.1278 2.58199 23.466 2.62774C23.5627 2.64068 23.6566 2.65565 23.7482 2.67243C23.8394 2.68953 23.9283 2.70867 24.0145 2.72962C24.0572 2.74032 24.0996 2.75143 24.1411 2.76244C24.3075 2.80863 24.4622 2.86326 24.6048 2.92622C24.7726 2.03046 24.6034 1.42056 24.0249 0.868289C23.3871 0.260209 22.2361 0 20.7633 0H16.4872C16.1864 0 15.9297 0.18313 15.8832 0.432434L14.1022 9.88429C14.0671 10.0713 14.2394 10.24 14.4646 10.24H17.1044L18.4803 2.93841Z" fill="#28356A"/>
<path id="Fill 1" fill-rule="evenodd" clip-rule="evenodd" d="M4.80999 13.7002H1.69233C1.47897 13.7002 1.29752 13.83 1.26419 14.0064L0.00326139 20.6995C-0.0217657 20.8317 0.100433 20.9507 0.260428 20.9507H1.74877C1.96214 20.9507 2.14359 20.821 2.17692 20.6443L2.51695 18.8389C2.54977 18.6622 2.7316 18.5324 2.94458 18.5324H3.93149C5.98512 18.5324 7.17033 17.7004 7.47998 16.0517C7.61941 15.3303 7.48585 14.7636 7.08235 14.3666C6.63927 13.9308 5.85334 13.7002 4.80999 13.7002ZM5.16948 16.1448C4.99901 17.0814 4.14426 17.0814 3.31786 17.0814H2.84732L3.1774 15.3322C3.19706 15.2265 3.30637 15.1487 3.43406 15.1487H3.64972C4.2127 15.1487 4.74376 15.1487 5.01817 15.4173C5.18186 15.5776 5.23192 15.8158 5.16948 16.1448Z" fill="#28356A"/>
<path id="Fill 2" fill-rule="evenodd" clip-rule="evenodd" d="M14.2097 16.0639H12.7168C12.5896 16.0639 12.4797 16.1417 12.4601 16.2474L12.394 16.597L12.2897 16.4703C11.9665 16.0776 11.2457 15.9463 10.5264 15.9463C8.87653 15.9463 7.46748 16.9925 7.19308 18.46C7.05045 19.1919 7.25322 19.892 7.74929 20.3801C8.20425 20.8289 8.85521 21.016 9.62965 21.016C10.959 21.016 11.696 20.3003 11.696 20.3003L11.6295 20.6477C11.6045 20.7805 11.7267 20.8996 11.8858 20.8996H13.2305C13.4444 20.8996 13.6249 20.7698 13.6586 20.5931L14.4655 16.315C14.491 16.1833 14.3692 16.0639 14.2097 16.0639ZM12.1287 18.4966C11.9846 19.2107 11.3077 19.69 10.4443 19.69C10.0108 19.69 9.66438 19.5736 9.44182 19.3531C9.22117 19.134 9.13741 18.8222 9.20751 18.4748C9.34209 17.7669 10.0303 17.2718 10.8806 17.2718C11.3045 17.2718 11.6492 17.3898 11.8762 17.6122C12.1036 17.837 12.1939 18.1508 12.1287 18.4966Z" fill="#28356A"/>
<path id="Fill 3" fill-rule="evenodd" clip-rule="evenodd" d="M22.0467 16.1709H20.5464C20.4032 16.1709 20.2688 16.2304 20.1877 16.3301L18.1185 18.8818L17.2414 16.4296C17.1862 16.2762 17.0172 16.1709 16.8256 16.1709H15.3515C15.1722 16.1709 15.0478 16.3175 15.1048 16.4587L16.7573 20.5188L15.2037 22.355C15.0815 22.4996 15.2046 22.6985 15.4157 22.6985H16.9141C17.0564 22.6985 17.1894 22.6404 17.2701 22.5428L22.26 16.5125C22.3795 16.3682 22.2568 16.1709 22.0467 16.1709Z" fill="#28356A"/>
<path id="Fill 4" fill-rule="evenodd" clip-rule="evenodd" d="M27.0462 13.7002H23.9282C23.7153 13.7002 23.5338 13.83 23.5005 14.0064L22.2396 20.6995C22.2146 20.8317 22.3368 20.9507 22.4959 20.9507H24.0959C24.2444 20.9507 24.3716 20.8599 24.3949 20.7362L24.7528 18.8389C24.7856 18.6622 24.9675 18.5324 25.1804 18.5324H26.1669C28.2209 18.5324 29.4058 17.7004 29.7158 16.0517C29.8557 15.3303 29.7213 14.7636 29.3178 14.3666C28.8751 13.9308 28.0897 13.7002 27.0462 13.7002ZM27.4059 16.1448C27.2358 17.0814 26.3811 17.0814 25.5542 17.0814H25.0843L25.4147 15.3322C25.4343 15.2265 25.5428 15.1487 25.6709 15.1487H25.8866C26.449 15.1487 26.9806 15.1487 27.255 15.4173C27.4187 15.5776 27.4684 15.8158 27.4059 16.1448Z" fill="#298FC2"/>
<path id="Fill 5" fill-rule="evenodd" clip-rule="evenodd" d="M36.4431 16.0639H34.951C34.823 16.0639 34.714 16.1417 34.6949 16.2474L34.6287 16.597L34.5239 16.4703C34.2007 16.0776 33.4804 15.9463 32.761 15.9463C31.1113 15.9463 29.7027 16.9925 29.4283 18.46C29.2861 19.1919 29.488 19.892 29.9839 20.3801C30.4399 20.8289 31.0898 21.016 31.8644 21.016C33.1936 21.016 33.9308 20.3003 33.9308 20.3003L33.8643 20.6477C33.8392 20.7805 33.9613 20.8996 34.1214 20.8996H35.4657C35.6786 20.8996 35.86 20.7698 35.8934 20.5931L36.7006 16.315C36.7253 16.1833 36.6031 16.0639 36.4431 16.0639ZM34.362 18.4966C34.2189 19.2107 33.541 19.69 32.6776 19.69C32.245 19.69 31.8976 19.5736 31.6751 19.3531C31.4546 19.134 31.3716 18.8222 31.4408 18.4748C31.5762 17.7669 32.2636 17.2718 33.1139 17.2718C33.5378 17.2718 33.8824 17.3898 34.1095 17.6122C34.3378 17.837 34.4281 18.1508 34.362 18.4966Z" fill="#298FC2"/>
<path id="Fill 6" fill-rule="evenodd" clip-rule="evenodd" d="M38.0797 13.8842L36.8001 20.6999C36.7751 20.832 36.8972 20.951 37.0563 20.951H38.3428C38.5566 20.951 38.738 20.8213 38.7708 20.6446L40.0326 13.9517C40.0578 13.8196 39.9356 13.7002 39.7765 13.7002H38.336C38.2088 13.7005 38.0994 13.7785 38.0797 13.8842Z" fill="#298FC2"/>
</g>
</svg>
